G04 #@! TF.GenerationSoftware,KiCad,Pcbnew,8.0.8*
G04 #@! TF.CreationDate,2025-01-21T00:02:22+01:00*
G04 #@! TF.ProjectId,cerberus,63657262-6572-4757-932e-6b696361645f,rev?*
G04 #@! TF.SameCoordinates,Original*
G04 #@! TF.FileFunction,Soldermask,Bot*
G04 #@! TF.FilePolarity,Negative*
%FSLAX46Y46*%
G04 Gerber Fmt 4.6, Leading zero omitted, Abs format (unit mm)*
G04 Created by KiCad (PCBNEW 8.0.8) date 2025-01-21 00:02:22*
%MOMM*%
%LPD*%
G01*
G04 APERTURE LIST*
G04 Aperture macros list*
%AMRoundRect*
0 Rectangle with rounded corners*
0 $1 Rounding radius*
0 $2 $3 $4 $5 $6 $7 $8 $9 X,Y pos of 4 corners*
0 Add a 4 corners polygon primitive as box body*
4,1,4,$2,$3,$4,$5,$6,$7,$8,$9,$2,$3,0*
0 Add four circle primitives for the rounded corners*
1,1,$1+$1,$2,$3*
1,1,$1+$1,$4,$5*
1,1,$1+$1,$6,$7*
1,1,$1+$1,$8,$9*
0 Add four rect primitives between the rounded corners*
20,1,$1+$1,$2,$3,$4,$5,0*
20,1,$1+$1,$4,$5,$6,$7,0*
20,1,$1+$1,$6,$7,$8,$9,0*
20,1,$1+$1,$8,$9,$2,$3,0*%
%AMFreePoly0*
4,1,19,0.500000,-0.750000,0.000000,-0.750000,0.000000,-0.744911,-0.071157,-0.744911,-0.207708,-0.704816,-0.327430,-0.627875,-0.420627,-0.520320,-0.479746,-0.390866,-0.500000,-0.250000,-0.500000,0.250000,-0.479746,0.390866,-0.420627,0.520320,-0.327430,0.627875,-0.207708,0.704816,-0.071157,0.744911,0.000000,0.744911,0.000000,0.750000,0.500000,0.750000,0.500000,-0.750000,0.500000,-0.750000,
$1*%
%AMFreePoly1*
4,1,19,0.000000,0.744911,0.071157,0.744911,0.207708,0.704816,0.327430,0.627875,0.420627,0.520320,0.479746,0.390866,0.500000,0.250000,0.500000,-0.250000,0.479746,-0.390866,0.420627,-0.520320,0.327430,-0.627875,0.207708,-0.704816,0.071157,-0.744911,0.000000,-0.744911,0.000000,-0.750000,-0.500000,-0.750000,-0.500000,0.750000,0.000000,0.750000,0.000000,0.744911,0.000000,0.744911,
$1*%
G04 Aperture macros list end*
%ADD10C,0.000000*%
%ADD11RoundRect,0.250000X0.750000X-3.250000X0.750000X3.250000X-0.750000X3.250000X-0.750000X-3.250000X0*%
%ADD12RoundRect,0.250000X0.500000X-2.750000X0.500000X2.750000X-0.500000X2.750000X-0.500000X-2.750000X0*%
%ADD13R,1.727200X1.727200*%
%ADD14C,1.727200*%
%ADD15O,1.727200X1.727200*%
%ADD16RoundRect,0.150000X-0.587500X-0.150000X0.587500X-0.150000X0.587500X0.150000X-0.587500X0.150000X0*%
%ADD17RoundRect,0.200000X-0.275000X0.200000X-0.275000X-0.200000X0.275000X-0.200000X0.275000X0.200000X0*%
%ADD18FreePoly0,270.000000*%
%ADD19FreePoly1,270.000000*%
%ADD20R,0.800000X1.000000*%
%ADD21C,0.900000*%
%ADD22R,1.500000X0.700000*%
%ADD23RoundRect,0.200000X0.275000X-0.200000X0.275000X0.200000X-0.275000X0.200000X-0.275000X-0.200000X0*%
%ADD24RoundRect,0.225000X-0.250000X0.225000X-0.250000X-0.225000X0.250000X-0.225000X0.250000X0.225000X0*%
%ADD25RoundRect,0.225000X0.250000X-0.225000X0.250000X0.225000X-0.250000X0.225000X-0.250000X-0.225000X0*%
%ADD26R,0.760000X2.000000*%
%ADD27R,1.500000X1.500000*%
%ADD28RoundRect,0.101600X-0.175000X-2.000000X0.175000X-2.000000X0.175000X2.000000X-0.175000X2.000000X0*%
%ADD29FreePoly0,90.000000*%
%ADD30FreePoly1,90.000000*%
G04 APERTURE END LIST*
D10*
G36*
X65828310Y-71988823D02*
G01*
X65876926Y-72005515D01*
X65934398Y-72032744D01*
X66000219Y-72070024D01*
X66073884Y-72116874D01*
X66154888Y-72172808D01*
X66242725Y-72237344D01*
X66336890Y-72309996D01*
X66542180Y-72477716D01*
X66766715Y-72672098D01*
X67006452Y-72889271D01*
X67257345Y-73125362D01*
X67535075Y-73397972D01*
X67810738Y-73682017D01*
X68079939Y-73973287D01*
X68338283Y-74267572D01*
X68581372Y-74560662D01*
X68695823Y-74705442D01*
X68804812Y-74848344D01*
X68907789Y-74988842D01*
X69004206Y-75126410D01*
X69093512Y-75260521D01*
X69175158Y-75390648D01*
X69254728Y-75525268D01*
X69328240Y-75657521D01*
X69395673Y-75787580D01*
X69457004Y-75915612D01*
X69512212Y-76041788D01*
X69561275Y-76166278D01*
X69604170Y-76289252D01*
X69640875Y-76410878D01*
X69671369Y-76531327D01*
X69695630Y-76650768D01*
X69713635Y-76769372D01*
X69725362Y-76887308D01*
X69730790Y-77004746D01*
X69729897Y-77121855D01*
X69722660Y-77238805D01*
X69709058Y-77355766D01*
X69688037Y-77478761D01*
X69660090Y-77603155D01*
X69625195Y-77729126D01*
X69583329Y-77856853D01*
X69534471Y-77986514D01*
X69478599Y-78118288D01*
X69415690Y-78252351D01*
X69345722Y-78388884D01*
X69268675Y-78528064D01*
X69184525Y-78670070D01*
X69093251Y-78815079D01*
X68994830Y-78963270D01*
X68889241Y-79114821D01*
X68776461Y-79269911D01*
X68656470Y-79428718D01*
X68529244Y-79591421D01*
X68387885Y-79759411D01*
X68225732Y-79938892D01*
X68046108Y-80127014D01*
X67852335Y-80320931D01*
X67647738Y-80517795D01*
X67435637Y-80714756D01*
X67219358Y-80908967D01*
X67002222Y-81097580D01*
X66804350Y-81264312D01*
X66614321Y-81419905D01*
X66435079Y-81561841D01*
X66269571Y-81687604D01*
X66192889Y-81743633D01*
X66120744Y-81794674D01*
X66053506Y-81840413D01*
X65991543Y-81880535D01*
X65935223Y-81914724D01*
X65884914Y-81942667D01*
X65840986Y-81964049D01*
X65803805Y-81978554D01*
X65780882Y-81978120D01*
X65749464Y-81970149D01*
X65709964Y-81954952D01*
X65662797Y-81932838D01*
X65608377Y-81904121D01*
X65547118Y-81869109D01*
X65405739Y-81781448D01*
X65241974Y-81672342D01*
X65059137Y-81544278D01*
X64860542Y-81399742D01*
X64649502Y-81241221D01*
X64407597Y-81051546D01*
X64165448Y-80850953D01*
X63926688Y-80642125D01*
X63694948Y-80427748D01*
X63582845Y-80319317D01*
X63473858Y-80210505D01*
X63368442Y-80101649D01*
X63267051Y-79993082D01*
X63170138Y-79885142D01*
X63078157Y-79778163D01*
X62991562Y-79672481D01*
X62910808Y-79568432D01*
X62908947Y-79566572D01*
X62792347Y-79411541D01*
X62681663Y-79259566D01*
X62576873Y-79110559D01*
X62477957Y-78964434D01*
X62384894Y-78821103D01*
X62297664Y-78680479D01*
X62216246Y-78542475D01*
X62140620Y-78407005D01*
X62070764Y-78273981D01*
X62006658Y-78143316D01*
X61948282Y-78014923D01*
X61895615Y-77888716D01*
X61848636Y-77764607D01*
X61807325Y-77642509D01*
X61771661Y-77522336D01*
X61741623Y-77404000D01*
X61718903Y-77296000D01*
X61701055Y-77189099D01*
X61688061Y-77083218D01*
X61679902Y-76978277D01*
X61676557Y-76874194D01*
X61678007Y-76770889D01*
X61684233Y-76668283D01*
X61695216Y-76566294D01*
X61710935Y-76464842D01*
X61731372Y-76363847D01*
X61756507Y-76263229D01*
X61786320Y-76162906D01*
X61820792Y-76062800D01*
X61859903Y-75962828D01*
X61903635Y-75862912D01*
X61951967Y-75762969D01*
X61997902Y-75675775D01*
X62048567Y-75585507D01*
X62163269Y-75396676D01*
X62294429Y-75198324D01*
X62440407Y-74992300D01*
X62599557Y-74780452D01*
X62770238Y-74564629D01*
X62950807Y-74346679D01*
X63139622Y-74128450D01*
X63331166Y-73916011D01*
X63526983Y-73707467D01*
X63725553Y-73504535D01*
X63925356Y-73308932D01*
X64124873Y-73122372D01*
X64322583Y-72946572D01*
X64516968Y-72783248D01*
X64706506Y-72634116D01*
X64751950Y-72601163D01*
X64847158Y-72533144D01*
X64942900Y-72467057D01*
X65038527Y-72403261D01*
X65133390Y-72342119D01*
X65226839Y-72283992D01*
X65318224Y-72229240D01*
X65406897Y-72178226D01*
X65492208Y-72131310D01*
X65553190Y-72098773D01*
X65608344Y-72069705D01*
X65657173Y-72044374D01*
X65699180Y-72023048D01*
X65733868Y-72005995D01*
X65760741Y-71993483D01*
X65771092Y-71989014D01*
X65779302Y-71985779D01*
X65785311Y-71983814D01*
X65789055Y-71983152D01*
X65828310Y-71988823D01*
G37*
D11*
X61100037Y-157480000D03*
D12*
X63850037Y-157480000D03*
X65850037Y-157480000D03*
D11*
X68600037Y-157480000D03*
D13*
X62230000Y-143510000D03*
D14*
X62230000Y-146050000D03*
D15*
X64770000Y-143510000D03*
X64770000Y-146050000D03*
D14*
X67310000Y-143510000D03*
X67310000Y-146050000D03*
D16*
X54610000Y-120015000D03*
X54610000Y-118115000D03*
X56485000Y-119065000D03*
D17*
X58420000Y-116460000D03*
X58420000Y-118110000D03*
X67310000Y-135065000D03*
X67310000Y-136715000D03*
D18*
X74930000Y-130810000D03*
D19*
X74930000Y-132110000D03*
D20*
X48100000Y-123780000D03*
X50310000Y-123780000D03*
D21*
X49200000Y-121630000D03*
X49200000Y-118630000D03*
D20*
X48100000Y-116480000D03*
X50310000Y-116480000D03*
D22*
X50960000Y-122380000D03*
X50960000Y-119380000D03*
X50960000Y-117880000D03*
D23*
X69850000Y-136715000D03*
X69850000Y-135065000D03*
D17*
X64770000Y-135065000D03*
X64770000Y-136715000D03*
D24*
X58409771Y-127402946D03*
X58409771Y-128952946D03*
D18*
X67310000Y-130780000D03*
D19*
X67310000Y-132080000D03*
D23*
X58420000Y-121475000D03*
X58420000Y-119825000D03*
D25*
X58420000Y-125235000D03*
X58420000Y-123685000D03*
D18*
X71120000Y-130810000D03*
D19*
X71120000Y-132110000D03*
D26*
X60325000Y-118590000D03*
X61595000Y-118590000D03*
X62865000Y-118590000D03*
X64135000Y-118590000D03*
X65405000Y-118590000D03*
X66675000Y-118590000D03*
X67945000Y-118590000D03*
X69215000Y-118590000D03*
X69215000Y-125250000D03*
X67945000Y-125250000D03*
X66675000Y-125250000D03*
X65405000Y-125250000D03*
X64135000Y-125250000D03*
X62865000Y-125250000D03*
X61595000Y-125250000D03*
X60325000Y-125250000D03*
D27*
X60960000Y-130720000D03*
X60960000Y-138520000D03*
D28*
X72198896Y-111947263D03*
X71498896Y-111947263D03*
X70798896Y-111947263D03*
X70098896Y-111947263D03*
X69398896Y-111947263D03*
X68698896Y-111947263D03*
X67998896Y-111947263D03*
X67298896Y-111947263D03*
X66598896Y-111947263D03*
X65898896Y-111947263D03*
X65198896Y-111947263D03*
X64498896Y-111947263D03*
D29*
X78740000Y-132095000D03*
D30*
X78740000Y-130795000D03*
M02*
