G04 #@! TF.GenerationSoftware,KiCad,Pcbnew,8.0.8*
G04 #@! TF.CreationDate,2025-01-21T00:02:22+01:00*
G04 #@! TF.ProjectId,cerberus,63657262-6572-4757-932e-6b696361645f,rev?*
G04 #@! TF.SameCoordinates,Original*
G04 #@! TF.FileFunction,Soldermask,Top*
G04 #@! TF.FilePolarity,Negative*
%FSLAX46Y46*%
G04 Gerber Fmt 4.6, Leading zero omitted, Abs format (unit mm)*
G04 Created by KiCad (PCBNEW 8.0.8) date 2025-01-21 00:02:22*
%MOMM*%
%LPD*%
G01*
G04 APERTURE LIST*
G04 Aperture macros list*
%AMRoundRect*
0 Rectangle with rounded corners*
0 $1 Rounding radius*
0 $2 $3 $4 $5 $6 $7 $8 $9 X,Y pos of 4 corners*
0 Add a 4 corners polygon primitive as box body*
4,1,4,$2,$3,$4,$5,$6,$7,$8,$9,$2,$3,0*
0 Add four circle primitives for the rounded corners*
1,1,$1+$1,$2,$3*
1,1,$1+$1,$4,$5*
1,1,$1+$1,$6,$7*
1,1,$1+$1,$8,$9*
0 Add four rect primitives between the rounded corners*
20,1,$1+$1,$2,$3,$4,$5,0*
20,1,$1+$1,$4,$5,$6,$7,0*
20,1,$1+$1,$6,$7,$8,$9,0*
20,1,$1+$1,$8,$9,$2,$3,0*%
G04 Aperture macros list end*
%ADD10C,0.000000*%
%ADD11RoundRect,0.218750X0.218750X0.256250X-0.218750X0.256250X-0.218750X-0.256250X0.218750X-0.256250X0*%
%ADD12R,1.727200X1.727200*%
%ADD13C,1.727200*%
%ADD14O,1.727200X1.727200*%
%ADD15RoundRect,0.275000X0.475000X0.275000X-0.475000X0.275000X-0.475000X-0.275000X0.475000X-0.275000X0*%
%ADD16C,0.900000*%
G04 APERTURE END LIST*
D10*
G36*
X65828310Y-71988823D02*
G01*
X65876926Y-72005515D01*
X65934398Y-72032744D01*
X66000219Y-72070024D01*
X66073884Y-72116874D01*
X66154888Y-72172808D01*
X66242725Y-72237344D01*
X66336890Y-72309996D01*
X66542180Y-72477716D01*
X66766715Y-72672098D01*
X67006452Y-72889271D01*
X67257345Y-73125362D01*
X67535075Y-73397972D01*
X67810738Y-73682017D01*
X68079939Y-73973287D01*
X68338283Y-74267572D01*
X68581372Y-74560662D01*
X68695823Y-74705442D01*
X68804812Y-74848344D01*
X68907789Y-74988842D01*
X69004206Y-75126410D01*
X69093512Y-75260521D01*
X69175158Y-75390648D01*
X69254728Y-75525268D01*
X69328240Y-75657521D01*
X69395673Y-75787580D01*
X69457004Y-75915612D01*
X69512212Y-76041788D01*
X69561275Y-76166278D01*
X69604170Y-76289252D01*
X69640875Y-76410878D01*
X69671369Y-76531327D01*
X69695630Y-76650768D01*
X69713635Y-76769372D01*
X69725362Y-76887308D01*
X69730790Y-77004746D01*
X69729897Y-77121855D01*
X69722660Y-77238805D01*
X69709058Y-77355766D01*
X69688037Y-77478761D01*
X69660090Y-77603155D01*
X69625195Y-77729126D01*
X69583329Y-77856853D01*
X69534471Y-77986514D01*
X69478599Y-78118288D01*
X69415690Y-78252351D01*
X69345722Y-78388884D01*
X69268675Y-78528064D01*
X69184525Y-78670070D01*
X69093251Y-78815079D01*
X68994830Y-78963270D01*
X68889241Y-79114821D01*
X68776461Y-79269911D01*
X68656470Y-79428718D01*
X68529244Y-79591421D01*
X68387885Y-79759411D01*
X68225732Y-79938892D01*
X68046108Y-80127014D01*
X67852335Y-80320931D01*
X67647738Y-80517795D01*
X67435637Y-80714756D01*
X67219358Y-80908967D01*
X67002222Y-81097580D01*
X66804350Y-81264312D01*
X66614321Y-81419905D01*
X66435079Y-81561841D01*
X66269571Y-81687604D01*
X66192889Y-81743633D01*
X66120744Y-81794674D01*
X66053506Y-81840413D01*
X65991543Y-81880535D01*
X65935223Y-81914724D01*
X65884914Y-81942667D01*
X65840986Y-81964049D01*
X65803805Y-81978554D01*
X65780882Y-81978120D01*
X65749464Y-81970149D01*
X65709964Y-81954952D01*
X65662797Y-81932838D01*
X65608377Y-81904121D01*
X65547118Y-81869109D01*
X65405739Y-81781448D01*
X65241974Y-81672342D01*
X65059137Y-81544278D01*
X64860542Y-81399742D01*
X64649502Y-81241221D01*
X64407597Y-81051546D01*
X64165448Y-80850953D01*
X63926688Y-80642125D01*
X63694948Y-80427748D01*
X63582845Y-80319317D01*
X63473858Y-80210505D01*
X63368442Y-80101649D01*
X63267051Y-79993082D01*
X63170138Y-79885142D01*
X63078157Y-79778163D01*
X62991562Y-79672481D01*
X62910808Y-79568432D01*
X62908947Y-79566572D01*
X62792347Y-79411541D01*
X62681663Y-79259566D01*
X62576873Y-79110559D01*
X62477957Y-78964434D01*
X62384894Y-78821103D01*
X62297664Y-78680479D01*
X62216246Y-78542475D01*
X62140620Y-78407005D01*
X62070764Y-78273981D01*
X62006658Y-78143316D01*
X61948282Y-78014923D01*
X61895615Y-77888716D01*
X61848636Y-77764607D01*
X61807325Y-77642509D01*
X61771661Y-77522336D01*
X61741623Y-77404000D01*
X61718903Y-77296000D01*
X61701055Y-77189099D01*
X61688061Y-77083218D01*
X61679902Y-76978277D01*
X61676557Y-76874194D01*
X61678007Y-76770889D01*
X61684233Y-76668283D01*
X61695216Y-76566294D01*
X61710935Y-76464842D01*
X61731372Y-76363847D01*
X61756507Y-76263229D01*
X61786320Y-76162906D01*
X61820792Y-76062800D01*
X61859903Y-75962828D01*
X61903635Y-75862912D01*
X61951967Y-75762969D01*
X61997902Y-75675775D01*
X62048567Y-75585507D01*
X62163269Y-75396676D01*
X62294429Y-75198324D01*
X62440407Y-74992300D01*
X62599557Y-74780452D01*
X62770238Y-74564629D01*
X62950807Y-74346679D01*
X63139622Y-74128450D01*
X63331166Y-73916011D01*
X63526983Y-73707467D01*
X63725553Y-73504535D01*
X63925356Y-73308932D01*
X64124873Y-73122372D01*
X64322583Y-72946572D01*
X64516968Y-72783248D01*
X64706506Y-72634116D01*
X64751950Y-72601163D01*
X64847158Y-72533144D01*
X64942900Y-72467057D01*
X65038527Y-72403261D01*
X65133390Y-72342119D01*
X65226839Y-72283992D01*
X65318224Y-72229240D01*
X65406897Y-72178226D01*
X65492208Y-72131310D01*
X65553190Y-72098773D01*
X65608344Y-72069705D01*
X65657173Y-72044374D01*
X65699180Y-72023048D01*
X65733868Y-72005995D01*
X65760741Y-71993483D01*
X65771092Y-71989014D01*
X65779302Y-71985779D01*
X65785311Y-71983814D01*
X65789055Y-71983152D01*
X65828310Y-71988823D01*
G37*
G36*
X76456219Y-54292555D02*
G01*
X76572511Y-54478496D01*
X76812852Y-54895499D01*
X77059341Y-55358828D01*
X77306939Y-55851880D01*
X77550609Y-56358050D01*
X77785312Y-56860735D01*
X78207669Y-57789238D01*
X78449520Y-58321710D01*
X78554535Y-58546416D01*
X78603274Y-58647766D01*
X78649578Y-58741544D01*
X78987465Y-59425553D01*
X79321629Y-60125139D01*
X79649852Y-60839244D01*
X79969915Y-61566806D01*
X80279598Y-62306766D01*
X80576682Y-63058065D01*
X80858949Y-63819642D01*
X81124178Y-64590438D01*
X81367624Y-65361379D01*
X81589475Y-66138070D01*
X81787506Y-66919367D01*
X81959493Y-67704122D01*
X82103209Y-68491189D01*
X82216429Y-69279424D01*
X82296929Y-70067681D01*
X82324213Y-70461459D01*
X82342482Y-70854812D01*
X82351052Y-71259190D01*
X82348537Y-71644029D01*
X82335728Y-72010469D01*
X82313418Y-72359647D01*
X82282398Y-72692702D01*
X82243461Y-73010772D01*
X82197398Y-73314997D01*
X82145001Y-73606514D01*
X82087064Y-73886462D01*
X82024376Y-74155980D01*
X81957732Y-74416205D01*
X81887922Y-74668277D01*
X81741975Y-75152513D01*
X81592871Y-75617797D01*
X81459191Y-76034079D01*
X81394564Y-76241587D01*
X81332107Y-76449853D01*
X81272339Y-76659762D01*
X81215781Y-76872202D01*
X81162954Y-77088056D01*
X81114378Y-77308212D01*
X80726584Y-79173029D01*
X82595869Y-77028844D01*
X82641677Y-77221403D01*
X82678472Y-77419114D01*
X82726550Y-77828315D01*
X82743153Y-78253097D01*
X82731330Y-78690108D01*
X82694131Y-79136000D01*
X82634604Y-79587419D01*
X82555800Y-80041017D01*
X82460766Y-80493443D01*
X82352553Y-80941345D01*
X82234210Y-81381373D01*
X81979330Y-82224405D01*
X81720521Y-82995734D01*
X81482176Y-83668554D01*
X81350248Y-84039158D01*
X81292244Y-84205813D01*
X81240389Y-84359601D01*
X81195315Y-84500197D01*
X81157652Y-84627276D01*
X81128034Y-84740511D01*
X81116439Y-84791836D01*
X81107092Y-84839578D01*
X80759493Y-86787403D01*
X81989909Y-85236015D01*
X82074309Y-85130491D01*
X82163049Y-85021756D01*
X82255889Y-84910723D01*
X82352588Y-84798306D01*
X82452907Y-84685421D01*
X82556606Y-84572982D01*
X82663447Y-84461902D01*
X82773188Y-84353098D01*
X82776503Y-84349983D01*
X82724034Y-84557380D01*
X82668115Y-84753560D01*
X82608666Y-84939724D01*
X82545608Y-85117074D01*
X82478861Y-85286810D01*
X82408348Y-85450134D01*
X82333988Y-85608247D01*
X82255703Y-85762350D01*
X82173413Y-85913645D01*
X82087039Y-86063332D01*
X81996503Y-86212613D01*
X81901725Y-86362689D01*
X81699126Y-86670029D01*
X81478609Y-86994964D01*
X81191805Y-87418888D01*
X80798114Y-88023443D01*
X80418699Y-88642088D01*
X80052716Y-89273608D01*
X79699319Y-89916789D01*
X79026910Y-91233276D01*
X78394713Y-92581838D01*
X77795973Y-93952761D01*
X77223933Y-95336332D01*
X76132925Y-98102565D01*
X75848176Y-98832075D01*
X75454106Y-99832573D01*
X74962304Y-101076450D01*
X74222627Y-102943601D01*
X73499206Y-104806419D01*
X72793959Y-106696805D01*
X72448749Y-107662303D01*
X72108801Y-108646656D01*
X71972240Y-109055491D01*
X71844006Y-109446464D01*
X71526745Y-110383882D01*
X71369000Y-110787483D01*
X71200282Y-111149786D01*
X71011920Y-111472371D01*
X70907663Y-111619264D01*
X70795242Y-111756819D01*
X70673575Y-111885235D01*
X70541577Y-112004709D01*
X70398164Y-112115439D01*
X70242252Y-112217622D01*
X70072757Y-112311456D01*
X69888596Y-112397138D01*
X69688684Y-112474865D01*
X69471937Y-112544836D01*
X69237271Y-112607248D01*
X68983603Y-112662298D01*
X68414922Y-112751104D01*
X67757223Y-112812833D01*
X67001834Y-112849066D01*
X66140083Y-112861383D01*
X65163298Y-112851364D01*
X64184891Y-112827853D01*
X63324511Y-112794376D01*
X62571991Y-112744368D01*
X61917162Y-112671260D01*
X61623203Y-112623992D01*
X61349855Y-112568487D01*
X61095844Y-112503924D01*
X60859902Y-112429482D01*
X60640756Y-112344340D01*
X60437135Y-112247677D01*
X60247768Y-112138673D01*
X60071385Y-112016506D01*
X59906715Y-111880357D01*
X59752485Y-111729403D01*
X59607426Y-111562824D01*
X59470266Y-111379800D01*
X59339734Y-111179509D01*
X59214559Y-110961130D01*
X59093470Y-110723844D01*
X58975196Y-110466828D01*
X58742009Y-109890326D01*
X58504830Y-109225056D01*
X57977820Y-107601951D01*
X57471180Y-106023371D01*
X56849717Y-104170644D01*
X56485216Y-103134911D01*
X56079156Y-102022764D01*
X55627254Y-100831578D01*
X55125224Y-99558727D01*
X54691180Y-98486849D01*
X54248752Y-97413265D01*
X53797788Y-96343412D01*
X53338138Y-95282726D01*
X52861498Y-94217666D01*
X52372893Y-93165734D01*
X51871816Y-92131447D01*
X51616440Y-91622332D01*
X51357756Y-91119323D01*
X51234632Y-90893068D01*
X51093538Y-90650857D01*
X50936325Y-90393901D01*
X50764839Y-90123416D01*
X50386443Y-89546703D01*
X50104890Y-89126880D01*
X53609365Y-89126880D01*
X53616978Y-89427890D01*
X53639573Y-89724956D01*
X53676781Y-90017709D01*
X53728234Y-90305781D01*
X53793564Y-90588804D01*
X53872403Y-90866410D01*
X53964384Y-91138228D01*
X54069138Y-91403892D01*
X54186297Y-91663032D01*
X54315493Y-91915281D01*
X54456359Y-92160268D01*
X54608525Y-92397627D01*
X54771625Y-92626988D01*
X54945289Y-92847983D01*
X55129151Y-93060243D01*
X55322842Y-93263401D01*
X55526007Y-93457075D01*
X55738272Y-93640925D01*
X55959269Y-93814581D01*
X56188630Y-93977674D01*
X56425987Y-94129837D01*
X56670971Y-94270701D01*
X56923215Y-94399896D01*
X57182351Y-94517055D01*
X57448010Y-94621809D01*
X57719825Y-94713789D01*
X57997427Y-94792626D01*
X58280448Y-94857952D01*
X58568521Y-94909399D01*
X58861276Y-94946598D01*
X59158347Y-94969179D01*
X59459364Y-94976776D01*
X59760390Y-94969180D01*
X60057469Y-94946600D01*
X60350231Y-94909403D01*
X60638308Y-94857959D01*
X60921334Y-94792636D01*
X61198939Y-94713802D01*
X61470755Y-94621825D01*
X61736415Y-94517074D01*
X61995550Y-94399917D01*
X62247793Y-94270723D01*
X62492774Y-94129859D01*
X62730127Y-93977695D01*
X62959483Y-93814599D01*
X63180473Y-93640939D01*
X63392730Y-93457083D01*
X63595887Y-93263401D01*
X63789577Y-93060236D01*
X63973439Y-92847971D01*
X64147104Y-92626974D01*
X64310203Y-92397613D01*
X64462370Y-92160256D01*
X64603235Y-91915272D01*
X64732431Y-91663028D01*
X64849590Y-91403892D01*
X64954344Y-91138233D01*
X65046325Y-90866418D01*
X65125164Y-90588816D01*
X65190494Y-90305795D01*
X65241947Y-90017723D01*
X65279155Y-89724968D01*
X65301749Y-89427897D01*
X65309363Y-89126880D01*
X65649374Y-89126880D01*
X65656988Y-89427906D01*
X65679584Y-89724984D01*
X65716794Y-90017746D01*
X65768250Y-90305823D01*
X65833583Y-90588848D01*
X65912426Y-90866453D01*
X66004409Y-91138270D01*
X66109166Y-91403929D01*
X66226326Y-91663064D01*
X66355524Y-91915307D01*
X66496389Y-92160288D01*
X66648555Y-92397641D01*
X66811652Y-92626997D01*
X66985312Y-92847987D01*
X67169168Y-93060245D01*
X67362851Y-93263401D01*
X67566016Y-93457075D01*
X67778281Y-93640925D01*
X67999278Y-93814581D01*
X68228639Y-93977674D01*
X68465996Y-94129837D01*
X68710980Y-94270701D01*
X68963224Y-94399896D01*
X69222360Y-94517055D01*
X69488019Y-94621809D01*
X69759834Y-94713789D01*
X70037436Y-94792626D01*
X70320457Y-94857952D01*
X70608529Y-94909399D01*
X70901285Y-94946598D01*
X71198355Y-94969179D01*
X71499373Y-94976776D01*
X71800399Y-94969180D01*
X72097476Y-94946600D01*
X72390238Y-94909403D01*
X72678315Y-94857959D01*
X72961341Y-94792636D01*
X73238945Y-94713802D01*
X73510762Y-94621825D01*
X73776421Y-94517074D01*
X74035556Y-94399917D01*
X74287799Y-94270723D01*
X74532780Y-94129859D01*
X74770133Y-93977695D01*
X74999489Y-93814599D01*
X75220479Y-93640939D01*
X75432737Y-93457083D01*
X75635893Y-93263401D01*
X75829584Y-93060236D01*
X76013446Y-92847971D01*
X76187111Y-92626974D01*
X76350211Y-92397613D01*
X76502377Y-92160256D01*
X76643243Y-91915272D01*
X76772439Y-91663028D01*
X76889598Y-91403892D01*
X76994351Y-91138233D01*
X77086332Y-90866418D01*
X77165171Y-90588816D01*
X77230501Y-90305795D01*
X77281954Y-90017723D01*
X77319162Y-89724968D01*
X77341756Y-89427897D01*
X77349369Y-89126880D01*
X77341740Y-88825871D01*
X77319133Y-88528805D01*
X77281917Y-88236052D01*
X77230459Y-87947979D01*
X77165127Y-87664956D01*
X77086288Y-87387351D01*
X76994310Y-87115532D01*
X76889560Y-86849868D01*
X76772407Y-86590728D01*
X76643216Y-86338480D01*
X76502357Y-86093492D01*
X76350197Y-85856133D01*
X76187103Y-85626772D01*
X76013442Y-85405777D01*
X75829583Y-85193517D01*
X75635893Y-84990360D01*
X75432727Y-84796669D01*
X75220459Y-84612807D01*
X74999458Y-84439142D01*
X74770092Y-84276042D01*
X74532729Y-84123875D01*
X74287738Y-83983010D01*
X74035488Y-83853814D01*
X73776348Y-83736655D01*
X73510684Y-83631901D01*
X73238867Y-83539920D01*
X72961265Y-83461081D01*
X72678246Y-83395750D01*
X72390179Y-83344297D01*
X72097432Y-83307090D01*
X71800374Y-83284495D01*
X71499373Y-83276882D01*
X71198346Y-83284495D01*
X70901268Y-83307090D01*
X70608506Y-83344297D01*
X70320428Y-83395750D01*
X70037403Y-83461081D01*
X69759798Y-83539920D01*
X69487981Y-83631901D01*
X69222321Y-83736655D01*
X68963186Y-83853814D01*
X68710944Y-83983010D01*
X68465962Y-84123875D01*
X68228610Y-84276042D01*
X67999254Y-84439142D01*
X67778264Y-84612807D01*
X67566007Y-84796669D01*
X67362851Y-84990360D01*
X67169176Y-85193525D01*
X66985327Y-85405790D01*
X66811671Y-85626787D01*
X66648576Y-85856147D01*
X66496412Y-86093504D01*
X66355546Y-86338489D01*
X66226348Y-86590733D01*
X66109185Y-86849868D01*
X66004426Y-87115528D01*
X65912439Y-87387342D01*
X65833594Y-87664944D01*
X65768257Y-87947965D01*
X65716799Y-88236038D01*
X65679586Y-88528793D01*
X65656989Y-88825863D01*
X65649374Y-89126880D01*
X65309363Y-89126880D01*
X65301749Y-88825871D01*
X65279155Y-88528805D01*
X65241947Y-88236052D01*
X65190494Y-87947979D01*
X65125164Y-87664956D01*
X65046325Y-87387351D01*
X64954344Y-87115532D01*
X64849590Y-86849868D01*
X64732431Y-86590728D01*
X64603235Y-86338480D01*
X64462370Y-86093492D01*
X64310203Y-85856133D01*
X64147104Y-85626772D01*
X63973439Y-85405777D01*
X63789577Y-85193517D01*
X63595887Y-84990360D01*
X63392721Y-84796669D01*
X63180452Y-84612807D01*
X62959451Y-84439142D01*
X62730084Y-84276042D01*
X62492721Y-84123875D01*
X62247730Y-83983010D01*
X61995480Y-83853814D01*
X61736339Y-83736655D01*
X61470676Y-83631901D01*
X61198859Y-83539920D01*
X60921256Y-83461081D01*
X60638237Y-83395750D01*
X60350170Y-83344297D01*
X60057423Y-83307090D01*
X59760365Y-83284495D01*
X59459364Y-83276882D01*
X59158355Y-83284494D01*
X58861289Y-83307085D01*
X58568535Y-83344289D01*
X58280462Y-83395736D01*
X57997439Y-83461060D01*
X57719834Y-83539893D01*
X57448015Y-83631868D01*
X57182351Y-83736617D01*
X56923211Y-83853772D01*
X56670962Y-83982965D01*
X56425974Y-84123831D01*
X56188616Y-84275999D01*
X55959255Y-84439104D01*
X55738260Y-84612778D01*
X55525999Y-84796652D01*
X55322842Y-84990360D01*
X55129151Y-85193526D01*
X54945289Y-85405794D01*
X54771624Y-85626795D01*
X54608525Y-85856161D01*
X54456358Y-86093524D01*
X54315493Y-86338515D01*
X54186297Y-86590765D01*
X54069138Y-86849906D01*
X53964384Y-87115569D01*
X53872403Y-87387386D01*
X53793564Y-87664988D01*
X53728233Y-87948007D01*
X53676780Y-88236074D01*
X53639573Y-88528821D01*
X53616978Y-88825879D01*
X53609365Y-89126880D01*
X50104890Y-89126880D01*
X49973137Y-88930423D01*
X49282684Y-87895940D01*
X48938012Y-87363928D01*
X48604653Y-86830028D01*
X48290817Y-86300207D01*
X48004713Y-85780434D01*
X47874626Y-85526181D01*
X47754549Y-85276677D01*
X47645510Y-85032670D01*
X47548534Y-84794904D01*
X49158555Y-85959596D01*
X48782868Y-84593017D01*
X48703448Y-84312397D01*
X48624313Y-84047701D01*
X48545671Y-83797334D01*
X48467728Y-83559702D01*
X48314759Y-83116266D01*
X48167058Y-82704635D01*
X47982385Y-82186205D01*
X47815917Y-81674199D01*
X47741243Y-81411665D01*
X47673200Y-81140010D01*
X47612482Y-80855657D01*
X47559783Y-80555031D01*
X47515794Y-80234555D01*
X47481211Y-79890653D01*
X47456726Y-79519751D01*
X47443033Y-79118270D01*
X47440825Y-78682636D01*
X47450795Y-78209273D01*
X47473638Y-77694605D01*
X47510046Y-77135055D01*
X47535645Y-77159631D01*
X47561307Y-77184780D01*
X47613269Y-77236992D01*
X47666843Y-77292086D01*
X47722937Y-77350460D01*
X47830123Y-77461779D01*
X47889958Y-77523063D01*
X47955323Y-77589077D01*
X47955122Y-77588983D01*
X49050829Y-78687202D01*
X48800807Y-77157322D01*
X48766713Y-76970129D01*
X48744308Y-76867450D01*
X60669061Y-76867450D01*
X60673985Y-77014447D01*
X60685686Y-77162743D01*
X60704192Y-77312452D01*
X60729531Y-77463687D01*
X60761732Y-77616561D01*
X60798382Y-77761892D01*
X60841235Y-77908541D01*
X60890315Y-78056615D01*
X60945649Y-78206221D01*
X61007261Y-78357466D01*
X61075178Y-78510458D01*
X61149425Y-78665305D01*
X61230027Y-78822112D01*
X61317011Y-78980988D01*
X61410400Y-79142040D01*
X61510222Y-79305374D01*
X61616502Y-79471099D01*
X61729265Y-79639322D01*
X61848536Y-79810148D01*
X61974342Y-79983687D01*
X62106707Y-80160045D01*
X62197843Y-80277583D01*
X62295236Y-80396704D01*
X62398388Y-80517038D01*
X62506800Y-80638219D01*
X62619975Y-80759878D01*
X62737415Y-80881645D01*
X62983096Y-81124033D01*
X63239859Y-81362436D01*
X63503719Y-81593907D01*
X63770691Y-81815497D01*
X64036791Y-82024259D01*
X64185732Y-82135346D01*
X64334135Y-82241271D01*
X64481411Y-82341604D01*
X64626968Y-82435912D01*
X64770217Y-82523766D01*
X64910566Y-82604733D01*
X65047426Y-82678384D01*
X65180205Y-82744286D01*
X65308315Y-82802009D01*
X65431163Y-82851122D01*
X65548160Y-82891193D01*
X65658715Y-82921792D01*
X65762238Y-82942487D01*
X65811178Y-82948986D01*
X65858139Y-82952847D01*
X65903046Y-82954017D01*
X65945826Y-82952442D01*
X65986405Y-82948067D01*
X66024710Y-82940839D01*
X66038426Y-82936922D01*
X66101546Y-82916831D01*
X66171796Y-82888462D01*
X66248711Y-82852212D01*
X66331826Y-82808481D01*
X66420674Y-82757667D01*
X66514791Y-82700169D01*
X66716968Y-82566719D01*
X66934633Y-82411319D01*
X67164063Y-82237162D01*
X67401534Y-82047437D01*
X67643322Y-81845337D01*
X67876481Y-81642698D01*
X68109379Y-81433223D01*
X68338441Y-81219973D01*
X68560090Y-81006007D01*
X68770750Y-80794388D01*
X68966843Y-80588175D01*
X69144794Y-80390429D01*
X69225848Y-80295688D01*
X69301026Y-80204212D01*
X69302935Y-80202203D01*
X69450707Y-80012999D01*
X69590194Y-79827466D01*
X69721428Y-79645371D01*
X69844437Y-79466486D01*
X69959251Y-79290580D01*
X70065901Y-79117422D01*
X70164415Y-78946782D01*
X70254825Y-78778430D01*
X70337160Y-78612135D01*
X70411450Y-78447667D01*
X70477725Y-78284796D01*
X70536014Y-78123291D01*
X70586348Y-77962922D01*
X70628756Y-77803458D01*
X70663268Y-77644670D01*
X70689915Y-77486326D01*
X70709228Y-77323396D01*
X70720233Y-77161455D01*
X70722962Y-77000265D01*
X70717446Y-76839588D01*
X70703715Y-76679186D01*
X70681801Y-76518823D01*
X70651735Y-76358260D01*
X70613548Y-76197260D01*
X70567272Y-76035585D01*
X70512937Y-75872998D01*
X70450574Y-75709260D01*
X70380215Y-75544136D01*
X70301891Y-75377386D01*
X70215633Y-75208774D01*
X70121471Y-75038061D01*
X70019438Y-74865011D01*
X69928623Y-74720083D01*
X69829859Y-74571284D01*
X69723735Y-74419175D01*
X69610836Y-74264320D01*
X69491751Y-74107280D01*
X69367066Y-73948619D01*
X69103247Y-73628678D01*
X68824076Y-73308996D01*
X68534251Y-72994072D01*
X68238470Y-72688404D01*
X67941430Y-72396492D01*
X67782377Y-72246739D01*
X67623599Y-72102278D01*
X67465724Y-71963711D01*
X67309381Y-71831641D01*
X67155200Y-71706671D01*
X67003809Y-71589404D01*
X66855837Y-71480444D01*
X66711913Y-71380393D01*
X66572665Y-71289854D01*
X66438724Y-71209431D01*
X66310718Y-71139726D01*
X66189275Y-71081343D01*
X66075026Y-71034884D01*
X65968597Y-71000952D01*
X65918513Y-70988872D01*
X65870620Y-70980151D01*
X65824996Y-70974863D01*
X65781769Y-70973085D01*
X65746954Y-70974288D01*
X65709861Y-70977856D01*
X65670600Y-70983729D01*
X65629280Y-70991847D01*
X65586008Y-71002149D01*
X65540894Y-71014574D01*
X65494046Y-71029062D01*
X65445572Y-71045552D01*
X65395580Y-71063984D01*
X65344180Y-71084298D01*
X65237586Y-71130327D01*
X65126657Y-71183157D01*
X65012261Y-71242302D01*
X64927995Y-71288436D01*
X64841204Y-71337774D01*
X64752349Y-71390061D01*
X64661890Y-71445042D01*
X64570290Y-71502464D01*
X64478008Y-71562071D01*
X64385505Y-71623609D01*
X64293244Y-71686824D01*
X64288723Y-71686824D01*
X64154618Y-71786411D01*
X63939998Y-71952152D01*
X63719907Y-72134331D01*
X63496162Y-72330905D01*
X63270584Y-72539832D01*
X63044991Y-72759071D01*
X62821204Y-72986579D01*
X62601041Y-73220314D01*
X62386323Y-73458234D01*
X62177403Y-73699954D01*
X61976967Y-73942601D01*
X61786829Y-74184138D01*
X61608804Y-74422522D01*
X61444705Y-74655716D01*
X61296347Y-74881680D01*
X61228638Y-74991313D01*
X61165545Y-75098373D01*
X61107293Y-75202606D01*
X61054111Y-75303756D01*
X60986348Y-75443957D01*
X60925052Y-75584207D01*
X60870251Y-75724621D01*
X60821975Y-75865313D01*
X60780250Y-76006395D01*
X60745105Y-76147981D01*
X60716567Y-76290185D01*
X60694666Y-76433120D01*
X60679429Y-76576900D01*
X60670885Y-76721639D01*
X60669061Y-76867450D01*
X48744308Y-76867450D01*
X48726885Y-76787606D01*
X48682021Y-76608716D01*
X48632817Y-76432422D01*
X48579969Y-76257691D01*
X48524174Y-76083485D01*
X48406529Y-75732507D01*
X48277429Y-75346757D01*
X48213973Y-75147141D01*
X48152695Y-74941999D01*
X48094678Y-74730557D01*
X48041009Y-74512040D01*
X47992772Y-74285674D01*
X47951053Y-74050685D01*
X47888939Y-73634324D01*
X47866835Y-73468383D01*
X53625895Y-73468383D01*
X53625945Y-73468383D01*
X53780005Y-73286159D01*
X53926722Y-73084460D01*
X54066150Y-72864379D01*
X54198343Y-72627008D01*
X54441249Y-72104768D01*
X54655880Y-71526480D01*
X54821119Y-70973083D01*
X54842676Y-70900885D01*
X55002079Y-70236724D01*
X55134527Y-69542737D01*
X55240463Y-68827665D01*
X55320326Y-68100248D01*
X55374556Y-67369228D01*
X55403594Y-66643344D01*
X55407881Y-65931337D01*
X55387857Y-65241949D01*
X55343963Y-64583918D01*
X55276638Y-63965987D01*
X55186324Y-63396896D01*
X55036017Y-62595942D01*
X54938166Y-62124546D01*
X54822910Y-61637954D01*
X54758221Y-61396479D01*
X54688543Y-61160229D01*
X54613660Y-60932212D01*
X54533360Y-60715435D01*
X54447429Y-60512907D01*
X54355656Y-60327635D01*
X54257825Y-60162628D01*
X54153726Y-60020892D01*
X54211517Y-60922628D01*
X54280461Y-61788856D01*
X54419657Y-63468873D01*
X54473832Y-64309709D01*
X54507008Y-65169127D01*
X54511147Y-66060650D01*
X54499816Y-66522676D01*
X54478212Y-66997800D01*
X54448541Y-67428742D01*
X54409138Y-67854700D01*
X54306783Y-68692903D01*
X54182434Y-69514888D01*
X54047380Y-70323138D01*
X53912911Y-71120131D01*
X53790314Y-71908349D01*
X53690879Y-72690273D01*
X53653375Y-73079650D01*
X53625895Y-73468383D01*
X47866835Y-73468383D01*
X47861279Y-73426675D01*
X47835921Y-73219014D01*
X47812892Y-73011068D01*
X47792221Y-72802563D01*
X47773934Y-72593226D01*
X47758059Y-72382782D01*
X47744581Y-72170844D01*
X47733632Y-71958246D01*
X47725233Y-71744738D01*
X47719408Y-71530069D01*
X47716178Y-71313990D01*
X47715565Y-71096250D01*
X47717593Y-70876598D01*
X47722284Y-70654785D01*
X47722284Y-70652876D01*
X47741042Y-70287902D01*
X47777539Y-69896731D01*
X47830909Y-69481167D01*
X47900288Y-69043015D01*
X48083608Y-68106163D01*
X48320578Y-67100610D01*
X48604273Y-66040791D01*
X48927772Y-64941143D01*
X49284151Y-63816101D01*
X49666489Y-62680099D01*
X50133427Y-61366908D01*
X50613712Y-60083938D01*
X51096691Y-58853422D01*
X51571709Y-57697597D01*
X52028114Y-56638699D01*
X52455251Y-55698962D01*
X52842468Y-54900622D01*
X53179111Y-54265915D01*
X57710212Y-62310592D01*
X58038919Y-62907008D01*
X58610009Y-63934397D01*
X58920189Y-64472613D01*
X59247561Y-65017766D01*
X59592700Y-65562800D01*
X59956180Y-66100658D01*
X60338579Y-66624283D01*
X60740470Y-67126617D01*
X61162430Y-67600604D01*
X61381115Y-67824762D01*
X61605034Y-68039187D01*
X61834257Y-68242996D01*
X62068858Y-68435308D01*
X62308907Y-68615240D01*
X62554476Y-68781910D01*
X62805639Y-68934437D01*
X63062466Y-69071938D01*
X63325029Y-69193530D01*
X63593401Y-69298332D01*
X63867653Y-69385462D01*
X64147858Y-69454037D01*
X64434087Y-69503176D01*
X64726412Y-69531995D01*
X64954593Y-69541262D01*
X65176277Y-69540515D01*
X65391603Y-69530090D01*
X65600710Y-69510323D01*
X65803739Y-69481551D01*
X66000827Y-69444108D01*
X66192115Y-69398333D01*
X66377741Y-69344560D01*
X66557844Y-69283127D01*
X66732564Y-69214368D01*
X66902040Y-69138621D01*
X67066411Y-69056221D01*
X67225816Y-68967504D01*
X67380395Y-68872807D01*
X67530286Y-68772466D01*
X67675629Y-68666816D01*
X67811622Y-68560167D01*
X67943211Y-68449418D01*
X68070546Y-68334874D01*
X68193777Y-68216840D01*
X68313054Y-68095618D01*
X68428527Y-67971514D01*
X68540347Y-67844831D01*
X68648662Y-67715872D01*
X68753624Y-67584944D01*
X68855381Y-67452348D01*
X68954085Y-67318390D01*
X69049885Y-67183373D01*
X69112506Y-67090547D01*
X74299166Y-67090547D01*
X74304281Y-67669239D01*
X74322228Y-68204712D01*
X74353215Y-68703822D01*
X74397452Y-69173424D01*
X74455147Y-69620377D01*
X74526509Y-70051535D01*
X74611747Y-70473756D01*
X74711070Y-70893895D01*
X74824687Y-71318810D01*
X74952807Y-71755356D01*
X75253390Y-72690768D01*
X75614491Y-73754984D01*
X75614542Y-73754984D01*
X75645279Y-73716320D01*
X75674227Y-73682923D01*
X75701390Y-73654168D01*
X75726770Y-73629431D01*
X75772187Y-73589512D01*
X75810495Y-73558172D01*
X75841713Y-73530417D01*
X75854667Y-73516324D01*
X75865856Y-73501253D01*
X75875281Y-73484582D01*
X75882943Y-73465686D01*
X75888846Y-73443940D01*
X75892990Y-73418721D01*
X75895380Y-73389403D01*
X75896016Y-73355364D01*
X75894900Y-73315977D01*
X75892036Y-73270620D01*
X75881069Y-73159496D01*
X75863131Y-73016997D01*
X75722018Y-72033367D01*
X75569287Y-70890941D01*
X75448492Y-69840441D01*
X75356988Y-68869532D01*
X75292132Y-67965884D01*
X75251279Y-67117165D01*
X75231786Y-66311040D01*
X75246304Y-64777250D01*
X75630017Y-57879473D01*
X75474390Y-58253227D01*
X75330269Y-58663389D01*
X75197308Y-59105580D01*
X75075160Y-59575420D01*
X74963478Y-60068530D01*
X74861915Y-60580531D01*
X74687761Y-61643687D01*
X74549926Y-62729855D01*
X74445635Y-63803999D01*
X74372116Y-64831085D01*
X74326596Y-65776078D01*
X74306674Y-66461779D01*
X74299166Y-67090547D01*
X69112506Y-67090547D01*
X69233372Y-66911380D01*
X69407044Y-66638801D01*
X70338986Y-65114695D01*
X71269669Y-63543381D01*
X72193220Y-61937152D01*
X73103766Y-60308303D01*
X73948198Y-58756798D01*
X74773020Y-57201816D01*
X75573112Y-55654108D01*
X76343354Y-54124422D01*
X76456219Y-54292555D01*
G37*
D11*
X66217500Y-129540000D03*
X64642500Y-129540000D03*
D12*
X62230000Y-143510000D03*
D13*
X62230000Y-146050000D03*
D14*
X64770000Y-143510000D03*
X64770000Y-146050000D03*
D13*
X67310000Y-143510000D03*
X67310000Y-146050000D03*
D15*
X68580000Y-123190000D03*
X68580000Y-120650000D03*
X62280000Y-120650000D03*
X62280000Y-123190000D03*
D16*
X49200000Y-121630000D03*
X49200000Y-118630000D03*
M02*
