M48
; DRILL file {KiCad 8.0.8} date 2025-01-21T00:02:24+0100
; FORMAT={-:-/ absolute / metric / decimal}
; #@! TF.CreationDate,2025-01-21T00:02:24+01:00
; #@! TF.GenerationSoftware,Kicad,Pcbnew,8.0.8
; #@! TF.FileFunction,Plated,1,2,PTH
FMAT,2
METRIC
; #@! TA.AperFunction,Plated,PTH,ViaDrill
T1C0.400
; #@! TA.AperFunction,Plated,PTH,ComponentDrill
T2C1.016
%
G90
G05
T1
X51.135Y-96.362
X54.61Y-123.19
X54.61Y-129.54
X57.15Y-123.19
X57.15Y-139.7
X58.278Y-105.303
X59.677Y-114.856
X59.69Y-150.1
X62.23Y-120.65
X62.23Y-123.19
X63.965Y-114.849
X64.641Y-129.537
X66.229Y-129.555
X67.804Y-114.865
X68.58Y-123.19
X68.58Y-120.658
X69.85Y-150.076
X71.798Y-114.892
X72.39Y-139.7
X72.707Y-105.727
X74.93Y-123.19
X77.47Y-129.54
X77.825Y-123.19
X79.259Y-97.255
T2
X62.23Y-143.51
X62.23Y-146.05
X64.77Y-143.51
X64.77Y-146.05
X67.31Y-143.51
X67.31Y-146.05
M30
