G04 #@! TF.GenerationSoftware,KiCad,Pcbnew,8.0.8*
G04 #@! TF.CreationDate,2025-01-21T00:02:22+01:00*
G04 #@! TF.ProjectId,cerberus,63657262-6572-4757-932e-6b696361645f,rev?*
G04 #@! TF.SameCoordinates,Original*
G04 #@! TF.FileFunction,Copper,L1,Top*
G04 #@! TF.FilePolarity,Positive*
%FSLAX46Y46*%
G04 Gerber Fmt 4.6, Leading zero omitted, Abs format (unit mm)*
G04 Created by KiCad (PCBNEW 8.0.8) date 2025-01-21 00:02:22*
%MOMM*%
%LPD*%
G01*
G04 APERTURE LIST*
G04 Aperture macros list*
%AMRoundRect*
0 Rectangle with rounded corners*
0 $1 Rounding radius*
0 $2 $3 $4 $5 $6 $7 $8 $9 X,Y pos of 4 corners*
0 Add a 4 corners polygon primitive as box body*
4,1,4,$2,$3,$4,$5,$6,$7,$8,$9,$2,$3,0*
0 Add four circle primitives for the rounded corners*
1,1,$1+$1,$2,$3*
1,1,$1+$1,$4,$5*
1,1,$1+$1,$6,$7*
1,1,$1+$1,$8,$9*
0 Add four rect primitives between the rounded corners*
20,1,$1+$1,$2,$3,$4,$5,0*
20,1,$1+$1,$4,$5,$6,$7,0*
20,1,$1+$1,$6,$7,$8,$9,0*
20,1,$1+$1,$8,$9,$2,$3,0*%
G04 Aperture macros list end*
G04 #@! TA.AperFunction,Conductor*
%ADD10C,0.000000*%
G04 #@! TD*
G04 #@! TA.AperFunction,SMDPad,CuDef*
%ADD11RoundRect,0.218750X0.218750X0.256250X-0.218750X0.256250X-0.218750X-0.256250X0.218750X-0.256250X0*%
G04 #@! TD*
G04 #@! TA.AperFunction,ComponentPad*
%ADD12R,1.727200X1.727200*%
G04 #@! TD*
G04 #@! TA.AperFunction,ComponentPad*
%ADD13C,1.727200*%
G04 #@! TD*
G04 #@! TA.AperFunction,ComponentPad*
%ADD14O,1.727200X1.727200*%
G04 #@! TD*
G04 #@! TA.AperFunction,SMDPad,CuDef*
%ADD15RoundRect,0.275000X0.475000X0.275000X-0.475000X0.275000X-0.475000X-0.275000X0.475000X-0.275000X0*%
G04 #@! TD*
G04 #@! TA.AperFunction,ViaPad*
%ADD16C,0.800000*%
G04 #@! TD*
G04 #@! TA.AperFunction,Conductor*
%ADD17C,0.250000*%
G04 #@! TD*
G04 APERTURE END LIST*
D10*
G04 #@! TA.AperFunction,Conductor*
G36*
X76456219Y-54292555D02*
G01*
X76572511Y-54478496D01*
X76812852Y-54895499D01*
X77059341Y-55358828D01*
X77306939Y-55851880D01*
X77550609Y-56358050D01*
X77785312Y-56860735D01*
X78207669Y-57789238D01*
X78449520Y-58321710D01*
X78554535Y-58546416D01*
X78603274Y-58647766D01*
X78649578Y-58741544D01*
X78987465Y-59425553D01*
X79321629Y-60125139D01*
X79649852Y-60839244D01*
X79969915Y-61566806D01*
X80279598Y-62306766D01*
X80576682Y-63058065D01*
X80858949Y-63819642D01*
X81124178Y-64590438D01*
X81367624Y-65361379D01*
X81589475Y-66138070D01*
X81787506Y-66919367D01*
X81959493Y-67704122D01*
X82103209Y-68491189D01*
X82216429Y-69279424D01*
X82296929Y-70067681D01*
X82324213Y-70461459D01*
X82342482Y-70854812D01*
X82351052Y-71259190D01*
X82348537Y-71644029D01*
X82335728Y-72010469D01*
X82313418Y-72359647D01*
X82282398Y-72692702D01*
X82243461Y-73010772D01*
X82197398Y-73314997D01*
X82145001Y-73606514D01*
X82087064Y-73886462D01*
X82024376Y-74155980D01*
X81957732Y-74416205D01*
X81887922Y-74668277D01*
X81741975Y-75152513D01*
X81592871Y-75617797D01*
X81459191Y-76034079D01*
X81394564Y-76241587D01*
X81332107Y-76449853D01*
X81272339Y-76659762D01*
X81215781Y-76872202D01*
X81162954Y-77088056D01*
X81114378Y-77308212D01*
X80726584Y-79173029D01*
X82595869Y-77028844D01*
X82641677Y-77221403D01*
X82678472Y-77419114D01*
X82726550Y-77828315D01*
X82743153Y-78253097D01*
X82731330Y-78690108D01*
X82694131Y-79136000D01*
X82634604Y-79587419D01*
X82555800Y-80041017D01*
X82460766Y-80493443D01*
X82352553Y-80941345D01*
X82234210Y-81381373D01*
X81979330Y-82224405D01*
X81720521Y-82995734D01*
X81482176Y-83668554D01*
X81350248Y-84039158D01*
X81292244Y-84205813D01*
X81240389Y-84359601D01*
X81195315Y-84500197D01*
X81157652Y-84627276D01*
X81128034Y-84740511D01*
X81116439Y-84791836D01*
X81107092Y-84839578D01*
X80759493Y-86787403D01*
X81989909Y-85236015D01*
X82074309Y-85130491D01*
X82163049Y-85021756D01*
X82255889Y-84910723D01*
X82352588Y-84798306D01*
X82452907Y-84685421D01*
X82556606Y-84572982D01*
X82663447Y-84461902D01*
X82773188Y-84353098D01*
X82776503Y-84349983D01*
X82724034Y-84557380D01*
X82668115Y-84753560D01*
X82608666Y-84939724D01*
X82545608Y-85117074D01*
X82478861Y-85286810D01*
X82408348Y-85450134D01*
X82333988Y-85608247D01*
X82255703Y-85762350D01*
X82173413Y-85913645D01*
X82087039Y-86063332D01*
X81996503Y-86212613D01*
X81901725Y-86362689D01*
X81699126Y-86670029D01*
X81478609Y-86994964D01*
X81191805Y-87418888D01*
X80798114Y-88023443D01*
X80418699Y-88642088D01*
X80052716Y-89273608D01*
X79699319Y-89916789D01*
X79026910Y-91233276D01*
X78394713Y-92581838D01*
X77795973Y-93952761D01*
X77223933Y-95336332D01*
X76132925Y-98102565D01*
X75848176Y-98832075D01*
X75454106Y-99832573D01*
X74962304Y-101076450D01*
X74222627Y-102943601D01*
X73499206Y-104806419D01*
X72793959Y-106696805D01*
X72448749Y-107662303D01*
X72108801Y-108646656D01*
X71972240Y-109055491D01*
X71844006Y-109446464D01*
X71526745Y-110383882D01*
X71369000Y-110787483D01*
X71200282Y-111149786D01*
X71011920Y-111472371D01*
X70907663Y-111619264D01*
X70795242Y-111756819D01*
X70673575Y-111885235D01*
X70541577Y-112004709D01*
X70398164Y-112115439D01*
X70242252Y-112217622D01*
X70072757Y-112311456D01*
X69888596Y-112397138D01*
X69688684Y-112474865D01*
X69471937Y-112544836D01*
X69237271Y-112607248D01*
X68983603Y-112662298D01*
X68414922Y-112751104D01*
X67757223Y-112812833D01*
X67001834Y-112849066D01*
X66140083Y-112861383D01*
X65163298Y-112851364D01*
X64184891Y-112827853D01*
X63324511Y-112794376D01*
X62571991Y-112744368D01*
X61917162Y-112671260D01*
X61623203Y-112623992D01*
X61349855Y-112568487D01*
X61095844Y-112503924D01*
X60859902Y-112429482D01*
X60640756Y-112344340D01*
X60437135Y-112247677D01*
X60247768Y-112138673D01*
X60071385Y-112016506D01*
X59906715Y-111880357D01*
X59752485Y-111729403D01*
X59607426Y-111562824D01*
X59470266Y-111379800D01*
X59339734Y-111179509D01*
X59214559Y-110961130D01*
X59093470Y-110723844D01*
X58975196Y-110466828D01*
X58742009Y-109890326D01*
X58504830Y-109225056D01*
X57977820Y-107601951D01*
X57471180Y-106023371D01*
X56849717Y-104170644D01*
X56485216Y-103134911D01*
X56079156Y-102022764D01*
X55627254Y-100831578D01*
X55125224Y-99558727D01*
X54691180Y-98486849D01*
X54248752Y-97413265D01*
X53797788Y-96343412D01*
X53338138Y-95282726D01*
X52861498Y-94217666D01*
X52372893Y-93165734D01*
X51871816Y-92131447D01*
X51616440Y-91622332D01*
X51357756Y-91119323D01*
X51234632Y-90893068D01*
X51093538Y-90650857D01*
X50936325Y-90393901D01*
X50764839Y-90123416D01*
X50386443Y-89546703D01*
X50104890Y-89126880D01*
X53609365Y-89126880D01*
X53616978Y-89427890D01*
X53639573Y-89724956D01*
X53676781Y-90017709D01*
X53728234Y-90305781D01*
X53793564Y-90588804D01*
X53872403Y-90866410D01*
X53964384Y-91138228D01*
X54069138Y-91403892D01*
X54186297Y-91663032D01*
X54315493Y-91915281D01*
X54456359Y-92160268D01*
X54608525Y-92397627D01*
X54771625Y-92626988D01*
X54945289Y-92847983D01*
X55129151Y-93060243D01*
X55322842Y-93263401D01*
X55526007Y-93457075D01*
X55738272Y-93640925D01*
X55959269Y-93814581D01*
X56188630Y-93977674D01*
X56425987Y-94129837D01*
X56670971Y-94270701D01*
X56923215Y-94399896D01*
X57182351Y-94517055D01*
X57448010Y-94621809D01*
X57719825Y-94713789D01*
X57997427Y-94792626D01*
X58280448Y-94857952D01*
X58568521Y-94909399D01*
X58861276Y-94946598D01*
X59158347Y-94969179D01*
X59459364Y-94976776D01*
X59760390Y-94969180D01*
X60057469Y-94946600D01*
X60350231Y-94909403D01*
X60638308Y-94857959D01*
X60921334Y-94792636D01*
X61198939Y-94713802D01*
X61470755Y-94621825D01*
X61736415Y-94517074D01*
X61995550Y-94399917D01*
X62247793Y-94270723D01*
X62492774Y-94129859D01*
X62730127Y-93977695D01*
X62959483Y-93814599D01*
X63180473Y-93640939D01*
X63392730Y-93457083D01*
X63595887Y-93263401D01*
X63789577Y-93060236D01*
X63973439Y-92847971D01*
X64147104Y-92626974D01*
X64310203Y-92397613D01*
X64462370Y-92160256D01*
X64603235Y-91915272D01*
X64732431Y-91663028D01*
X64849590Y-91403892D01*
X64954344Y-91138233D01*
X65046325Y-90866418D01*
X65125164Y-90588816D01*
X65190494Y-90305795D01*
X65241947Y-90017723D01*
X65279155Y-89724968D01*
X65301749Y-89427897D01*
X65309363Y-89126880D01*
X65649374Y-89126880D01*
X65656988Y-89427906D01*
X65679584Y-89724984D01*
X65716794Y-90017746D01*
X65768250Y-90305823D01*
X65833583Y-90588848D01*
X65912426Y-90866453D01*
X66004409Y-91138270D01*
X66109166Y-91403929D01*
X66226326Y-91663064D01*
X66355524Y-91915307D01*
X66496389Y-92160288D01*
X66648555Y-92397641D01*
X66811652Y-92626997D01*
X66985312Y-92847987D01*
X67169168Y-93060245D01*
X67362851Y-93263401D01*
X67566016Y-93457075D01*
X67778281Y-93640925D01*
X67999278Y-93814581D01*
X68228639Y-93977674D01*
X68465996Y-94129837D01*
X68710980Y-94270701D01*
X68963224Y-94399896D01*
X69222360Y-94517055D01*
X69488019Y-94621809D01*
X69759834Y-94713789D01*
X70037436Y-94792626D01*
X70320457Y-94857952D01*
X70608529Y-94909399D01*
X70901285Y-94946598D01*
X71198355Y-94969179D01*
X71499373Y-94976776D01*
X71800399Y-94969180D01*
X72097476Y-94946600D01*
X72390238Y-94909403D01*
X72678315Y-94857959D01*
X72961341Y-94792636D01*
X73238945Y-94713802D01*
X73510762Y-94621825D01*
X73776421Y-94517074D01*
X74035556Y-94399917D01*
X74287799Y-94270723D01*
X74532780Y-94129859D01*
X74770133Y-93977695D01*
X74999489Y-93814599D01*
X75220479Y-93640939D01*
X75432737Y-93457083D01*
X75635893Y-93263401D01*
X75829584Y-93060236D01*
X76013446Y-92847971D01*
X76187111Y-92626974D01*
X76350211Y-92397613D01*
X76502377Y-92160256D01*
X76643243Y-91915272D01*
X76772439Y-91663028D01*
X76889598Y-91403892D01*
X76994351Y-91138233D01*
X77086332Y-90866418D01*
X77165171Y-90588816D01*
X77230501Y-90305795D01*
X77281954Y-90017723D01*
X77319162Y-89724968D01*
X77341756Y-89427897D01*
X77349369Y-89126880D01*
X77341740Y-88825871D01*
X77319133Y-88528805D01*
X77281917Y-88236052D01*
X77230459Y-87947979D01*
X77165127Y-87664956D01*
X77086288Y-87387351D01*
X76994310Y-87115532D01*
X76889560Y-86849868D01*
X76772407Y-86590728D01*
X76643216Y-86338480D01*
X76502357Y-86093492D01*
X76350197Y-85856133D01*
X76187103Y-85626772D01*
X76013442Y-85405777D01*
X75829583Y-85193517D01*
X75635893Y-84990360D01*
X75432727Y-84796669D01*
X75220459Y-84612807D01*
X74999458Y-84439142D01*
X74770092Y-84276042D01*
X74532729Y-84123875D01*
X74287738Y-83983010D01*
X74035488Y-83853814D01*
X73776348Y-83736655D01*
X73510684Y-83631901D01*
X73238867Y-83539920D01*
X72961265Y-83461081D01*
X72678246Y-83395750D01*
X72390179Y-83344297D01*
X72097432Y-83307090D01*
X71800374Y-83284495D01*
X71499373Y-83276882D01*
X71198346Y-83284495D01*
X70901268Y-83307090D01*
X70608506Y-83344297D01*
X70320428Y-83395750D01*
X70037403Y-83461081D01*
X69759798Y-83539920D01*
X69487981Y-83631901D01*
X69222321Y-83736655D01*
X68963186Y-83853814D01*
X68710944Y-83983010D01*
X68465962Y-84123875D01*
X68228610Y-84276042D01*
X67999254Y-84439142D01*
X67778264Y-84612807D01*
X67566007Y-84796669D01*
X67362851Y-84990360D01*
X67169176Y-85193525D01*
X66985327Y-85405790D01*
X66811671Y-85626787D01*
X66648576Y-85856147D01*
X66496412Y-86093504D01*
X66355546Y-86338489D01*
X66226348Y-86590733D01*
X66109185Y-86849868D01*
X66004426Y-87115528D01*
X65912439Y-87387342D01*
X65833594Y-87664944D01*
X65768257Y-87947965D01*
X65716799Y-88236038D01*
X65679586Y-88528793D01*
X65656989Y-88825863D01*
X65649374Y-89126880D01*
X65309363Y-89126880D01*
X65301749Y-88825871D01*
X65279155Y-88528805D01*
X65241947Y-88236052D01*
X65190494Y-87947979D01*
X65125164Y-87664956D01*
X65046325Y-87387351D01*
X64954344Y-87115532D01*
X64849590Y-86849868D01*
X64732431Y-86590728D01*
X64603235Y-86338480D01*
X64462370Y-86093492D01*
X64310203Y-85856133D01*
X64147104Y-85626772D01*
X63973439Y-85405777D01*
X63789577Y-85193517D01*
X63595887Y-84990360D01*
X63392721Y-84796669D01*
X63180452Y-84612807D01*
X62959451Y-84439142D01*
X62730084Y-84276042D01*
X62492721Y-84123875D01*
X62247730Y-83983010D01*
X61995480Y-83853814D01*
X61736339Y-83736655D01*
X61470676Y-83631901D01*
X61198859Y-83539920D01*
X60921256Y-83461081D01*
X60638237Y-83395750D01*
X60350170Y-83344297D01*
X60057423Y-83307090D01*
X59760365Y-83284495D01*
X59459364Y-83276882D01*
X59158355Y-83284494D01*
X58861289Y-83307085D01*
X58568535Y-83344289D01*
X58280462Y-83395736D01*
X57997439Y-83461060D01*
X57719834Y-83539893D01*
X57448015Y-83631868D01*
X57182351Y-83736617D01*
X56923211Y-83853772D01*
X56670962Y-83982965D01*
X56425974Y-84123831D01*
X56188616Y-84275999D01*
X55959255Y-84439104D01*
X55738260Y-84612778D01*
X55525999Y-84796652D01*
X55322842Y-84990360D01*
X55129151Y-85193526D01*
X54945289Y-85405794D01*
X54771624Y-85626795D01*
X54608525Y-85856161D01*
X54456358Y-86093524D01*
X54315493Y-86338515D01*
X54186297Y-86590765D01*
X54069138Y-86849906D01*
X53964384Y-87115569D01*
X53872403Y-87387386D01*
X53793564Y-87664988D01*
X53728233Y-87948007D01*
X53676780Y-88236074D01*
X53639573Y-88528821D01*
X53616978Y-88825879D01*
X53609365Y-89126880D01*
X50104890Y-89126880D01*
X49973137Y-88930423D01*
X49282684Y-87895940D01*
X48938012Y-87363928D01*
X48604653Y-86830028D01*
X48290817Y-86300207D01*
X48004713Y-85780434D01*
X47874626Y-85526181D01*
X47754549Y-85276677D01*
X47645510Y-85032670D01*
X47548534Y-84794904D01*
X49158555Y-85959596D01*
X48782868Y-84593017D01*
X48703448Y-84312397D01*
X48624313Y-84047701D01*
X48545671Y-83797334D01*
X48467728Y-83559702D01*
X48314759Y-83116266D01*
X48167058Y-82704635D01*
X47982385Y-82186205D01*
X47815917Y-81674199D01*
X47741243Y-81411665D01*
X47673200Y-81140010D01*
X47612482Y-80855657D01*
X47559783Y-80555031D01*
X47515794Y-80234555D01*
X47481211Y-79890653D01*
X47456726Y-79519751D01*
X47443033Y-79118270D01*
X47440825Y-78682636D01*
X47450795Y-78209273D01*
X47473638Y-77694605D01*
X47510046Y-77135055D01*
X47535645Y-77159631D01*
X47561307Y-77184780D01*
X47613269Y-77236992D01*
X47666843Y-77292086D01*
X47722937Y-77350460D01*
X47830123Y-77461779D01*
X47889958Y-77523063D01*
X47955323Y-77589077D01*
X47955122Y-77588983D01*
X49050829Y-78687202D01*
X48800807Y-77157322D01*
X48766713Y-76970129D01*
X48744308Y-76867450D01*
X60669061Y-76867450D01*
X60673985Y-77014447D01*
X60685686Y-77162743D01*
X60704192Y-77312452D01*
X60729531Y-77463687D01*
X60761732Y-77616561D01*
X60798382Y-77761892D01*
X60841235Y-77908541D01*
X60890315Y-78056615D01*
X60945649Y-78206221D01*
X61007261Y-78357466D01*
X61075178Y-78510458D01*
X61149425Y-78665305D01*
X61230027Y-78822112D01*
X61317011Y-78980988D01*
X61410400Y-79142040D01*
X61510222Y-79305374D01*
X61616502Y-79471099D01*
X61729265Y-79639322D01*
X61848536Y-79810148D01*
X61974342Y-79983687D01*
X62106707Y-80160045D01*
X62197843Y-80277583D01*
X62295236Y-80396704D01*
X62398388Y-80517038D01*
X62506800Y-80638219D01*
X62619975Y-80759878D01*
X62737415Y-80881645D01*
X62983096Y-81124033D01*
X63239859Y-81362436D01*
X63503719Y-81593907D01*
X63770691Y-81815497D01*
X64036791Y-82024259D01*
X64185732Y-82135346D01*
X64334135Y-82241271D01*
X64481411Y-82341604D01*
X64626968Y-82435912D01*
X64770217Y-82523766D01*
X64910566Y-82604733D01*
X65047426Y-82678384D01*
X65180205Y-82744286D01*
X65308315Y-82802009D01*
X65431163Y-82851122D01*
X65548160Y-82891193D01*
X65658715Y-82921792D01*
X65762238Y-82942487D01*
X65811178Y-82948986D01*
X65858139Y-82952847D01*
X65903046Y-82954017D01*
X65945826Y-82952442D01*
X65986405Y-82948067D01*
X66024710Y-82940839D01*
X66038426Y-82936922D01*
X66101546Y-82916831D01*
X66171796Y-82888462D01*
X66248711Y-82852212D01*
X66331826Y-82808481D01*
X66420674Y-82757667D01*
X66514791Y-82700169D01*
X66716968Y-82566719D01*
X66934633Y-82411319D01*
X67164063Y-82237162D01*
X67401534Y-82047437D01*
X67643322Y-81845337D01*
X67876481Y-81642698D01*
X68109379Y-81433223D01*
X68338441Y-81219973D01*
X68560090Y-81006007D01*
X68770750Y-80794388D01*
X68966843Y-80588175D01*
X69144794Y-80390429D01*
X69225848Y-80295688D01*
X69301026Y-80204212D01*
X69302935Y-80202203D01*
X69450707Y-80012999D01*
X69590194Y-79827466D01*
X69721428Y-79645371D01*
X69844437Y-79466486D01*
X69959251Y-79290580D01*
X70065901Y-79117422D01*
X70164415Y-78946782D01*
X70254825Y-78778430D01*
X70337160Y-78612135D01*
X70411450Y-78447667D01*
X70477725Y-78284796D01*
X70536014Y-78123291D01*
X70586348Y-77962922D01*
X70628756Y-77803458D01*
X70663268Y-77644670D01*
X70689915Y-77486326D01*
X70709228Y-77323396D01*
X70720233Y-77161455D01*
X70722962Y-77000265D01*
X70717446Y-76839588D01*
X70703715Y-76679186D01*
X70681801Y-76518823D01*
X70651735Y-76358260D01*
X70613548Y-76197260D01*
X70567272Y-76035585D01*
X70512937Y-75872998D01*
X70450574Y-75709260D01*
X70380215Y-75544136D01*
X70301891Y-75377386D01*
X70215633Y-75208774D01*
X70121471Y-75038061D01*
X70019438Y-74865011D01*
X69928623Y-74720083D01*
X69829859Y-74571284D01*
X69723735Y-74419175D01*
X69610836Y-74264320D01*
X69491751Y-74107280D01*
X69367066Y-73948619D01*
X69103247Y-73628678D01*
X68824076Y-73308996D01*
X68534251Y-72994072D01*
X68238470Y-72688404D01*
X67941430Y-72396492D01*
X67782377Y-72246739D01*
X67623599Y-72102278D01*
X67465724Y-71963711D01*
X67309381Y-71831641D01*
X67155200Y-71706671D01*
X67003809Y-71589404D01*
X66855837Y-71480444D01*
X66711913Y-71380393D01*
X66572665Y-71289854D01*
X66438724Y-71209431D01*
X66310718Y-71139726D01*
X66189275Y-71081343D01*
X66075026Y-71034884D01*
X65968597Y-71000952D01*
X65918513Y-70988872D01*
X65870620Y-70980151D01*
X65824996Y-70974863D01*
X65781769Y-70973085D01*
X65746954Y-70974288D01*
X65709861Y-70977856D01*
X65670600Y-70983729D01*
X65629280Y-70991847D01*
X65586008Y-71002149D01*
X65540894Y-71014574D01*
X65494046Y-71029062D01*
X65445572Y-71045552D01*
X65395580Y-71063984D01*
X65344180Y-71084298D01*
X65237586Y-71130327D01*
X65126657Y-71183157D01*
X65012261Y-71242302D01*
X64927995Y-71288436D01*
X64841204Y-71337774D01*
X64752349Y-71390061D01*
X64661890Y-71445042D01*
X64570290Y-71502464D01*
X64478008Y-71562071D01*
X64385505Y-71623609D01*
X64293244Y-71686824D01*
X64288723Y-71686824D01*
X64154618Y-71786411D01*
X63939998Y-71952152D01*
X63719907Y-72134331D01*
X63496162Y-72330905D01*
X63270584Y-72539832D01*
X63044991Y-72759071D01*
X62821204Y-72986579D01*
X62601041Y-73220314D01*
X62386323Y-73458234D01*
X62177403Y-73699954D01*
X61976967Y-73942601D01*
X61786829Y-74184138D01*
X61608804Y-74422522D01*
X61444705Y-74655716D01*
X61296347Y-74881680D01*
X61228638Y-74991313D01*
X61165545Y-75098373D01*
X61107293Y-75202606D01*
X61054111Y-75303756D01*
X60986348Y-75443957D01*
X60925052Y-75584207D01*
X60870251Y-75724621D01*
X60821975Y-75865313D01*
X60780250Y-76006395D01*
X60745105Y-76147981D01*
X60716567Y-76290185D01*
X60694666Y-76433120D01*
X60679429Y-76576900D01*
X60670885Y-76721639D01*
X60669061Y-76867450D01*
X48744308Y-76867450D01*
X48726885Y-76787606D01*
X48682021Y-76608716D01*
X48632817Y-76432422D01*
X48579969Y-76257691D01*
X48524174Y-76083485D01*
X48406529Y-75732507D01*
X48277429Y-75346757D01*
X48213973Y-75147141D01*
X48152695Y-74941999D01*
X48094678Y-74730557D01*
X48041009Y-74512040D01*
X47992772Y-74285674D01*
X47951053Y-74050685D01*
X47888939Y-73634324D01*
X47866835Y-73468383D01*
X53625895Y-73468383D01*
X53625945Y-73468383D01*
X53780005Y-73286159D01*
X53926722Y-73084460D01*
X54066150Y-72864379D01*
X54198343Y-72627008D01*
X54441249Y-72104768D01*
X54655880Y-71526480D01*
X54821119Y-70973083D01*
X54842676Y-70900885D01*
X55002079Y-70236724D01*
X55134527Y-69542737D01*
X55240463Y-68827665D01*
X55320326Y-68100248D01*
X55374556Y-67369228D01*
X55403594Y-66643344D01*
X55407881Y-65931337D01*
X55387857Y-65241949D01*
X55343963Y-64583918D01*
X55276638Y-63965987D01*
X55186324Y-63396896D01*
X55036017Y-62595942D01*
X54938166Y-62124546D01*
X54822910Y-61637954D01*
X54758221Y-61396479D01*
X54688543Y-61160229D01*
X54613660Y-60932212D01*
X54533360Y-60715435D01*
X54447429Y-60512907D01*
X54355656Y-60327635D01*
X54257825Y-60162628D01*
X54153726Y-60020892D01*
X54211517Y-60922628D01*
X54280461Y-61788856D01*
X54419657Y-63468873D01*
X54473832Y-64309709D01*
X54507008Y-65169127D01*
X54511147Y-66060650D01*
X54499816Y-66522676D01*
X54478212Y-66997800D01*
X54448541Y-67428742D01*
X54409138Y-67854700D01*
X54306783Y-68692903D01*
X54182434Y-69514888D01*
X54047380Y-70323138D01*
X53912911Y-71120131D01*
X53790314Y-71908349D01*
X53690879Y-72690273D01*
X53653375Y-73079650D01*
X53625895Y-73468383D01*
X47866835Y-73468383D01*
X47861279Y-73426675D01*
X47835921Y-73219014D01*
X47812892Y-73011068D01*
X47792221Y-72802563D01*
X47773934Y-72593226D01*
X47758059Y-72382782D01*
X47744581Y-72170844D01*
X47733632Y-71958246D01*
X47725233Y-71744738D01*
X47719408Y-71530069D01*
X47716178Y-71313990D01*
X47715565Y-71096250D01*
X47717593Y-70876598D01*
X47722284Y-70654785D01*
X47722284Y-70652876D01*
X47741042Y-70287902D01*
X47777539Y-69896731D01*
X47830909Y-69481167D01*
X47900288Y-69043015D01*
X48083608Y-68106163D01*
X48320578Y-67100610D01*
X48604273Y-66040791D01*
X48927772Y-64941143D01*
X49284151Y-63816101D01*
X49666489Y-62680099D01*
X50133427Y-61366908D01*
X50613712Y-60083938D01*
X51096691Y-58853422D01*
X51571709Y-57697597D01*
X52028114Y-56638699D01*
X52455251Y-55698962D01*
X52842468Y-54900622D01*
X53179111Y-54265915D01*
X57710212Y-62310592D01*
X58038919Y-62907008D01*
X58610009Y-63934397D01*
X58920189Y-64472613D01*
X59247561Y-65017766D01*
X59592700Y-65562800D01*
X59956180Y-66100658D01*
X60338579Y-66624283D01*
X60740470Y-67126617D01*
X61162430Y-67600604D01*
X61381115Y-67824762D01*
X61605034Y-68039187D01*
X61834257Y-68242996D01*
X62068858Y-68435308D01*
X62308907Y-68615240D01*
X62554476Y-68781910D01*
X62805639Y-68934437D01*
X63062466Y-69071938D01*
X63325029Y-69193530D01*
X63593401Y-69298332D01*
X63867653Y-69385462D01*
X64147858Y-69454037D01*
X64434087Y-69503176D01*
X64726412Y-69531995D01*
X64954593Y-69541262D01*
X65176277Y-69540515D01*
X65391603Y-69530090D01*
X65600710Y-69510323D01*
X65803739Y-69481551D01*
X66000827Y-69444108D01*
X66192115Y-69398333D01*
X66377741Y-69344560D01*
X66557844Y-69283127D01*
X66732564Y-69214368D01*
X66902040Y-69138621D01*
X67066411Y-69056221D01*
X67225816Y-68967504D01*
X67380395Y-68872807D01*
X67530286Y-68772466D01*
X67675629Y-68666816D01*
X67811622Y-68560167D01*
X67943211Y-68449418D01*
X68070546Y-68334874D01*
X68193777Y-68216840D01*
X68313054Y-68095618D01*
X68428527Y-67971514D01*
X68540347Y-67844831D01*
X68648662Y-67715872D01*
X68753624Y-67584944D01*
X68855381Y-67452348D01*
X68954085Y-67318390D01*
X69049885Y-67183373D01*
X69112506Y-67090547D01*
X74299166Y-67090547D01*
X74304281Y-67669239D01*
X74322228Y-68204712D01*
X74353215Y-68703822D01*
X74397452Y-69173424D01*
X74455147Y-69620377D01*
X74526509Y-70051535D01*
X74611747Y-70473756D01*
X74711070Y-70893895D01*
X74824687Y-71318810D01*
X74952807Y-71755356D01*
X75253390Y-72690768D01*
X75614491Y-73754984D01*
X75614542Y-73754984D01*
X75645279Y-73716320D01*
X75674227Y-73682923D01*
X75701390Y-73654168D01*
X75726770Y-73629431D01*
X75772187Y-73589512D01*
X75810495Y-73558172D01*
X75841713Y-73530417D01*
X75854667Y-73516324D01*
X75865856Y-73501253D01*
X75875281Y-73484582D01*
X75882943Y-73465686D01*
X75888846Y-73443940D01*
X75892990Y-73418721D01*
X75895380Y-73389403D01*
X75896016Y-73355364D01*
X75894900Y-73315977D01*
X75892036Y-73270620D01*
X75881069Y-73159496D01*
X75863131Y-73016997D01*
X75722018Y-72033367D01*
X75569287Y-70890941D01*
X75448492Y-69840441D01*
X75356988Y-68869532D01*
X75292132Y-67965884D01*
X75251279Y-67117165D01*
X75231786Y-66311040D01*
X75246304Y-64777250D01*
X75630017Y-57879473D01*
X75474390Y-58253227D01*
X75330269Y-58663389D01*
X75197308Y-59105580D01*
X75075160Y-59575420D01*
X74963478Y-60068530D01*
X74861915Y-60580531D01*
X74687761Y-61643687D01*
X74549926Y-62729855D01*
X74445635Y-63803999D01*
X74372116Y-64831085D01*
X74326596Y-65776078D01*
X74306674Y-66461779D01*
X74299166Y-67090547D01*
X69112506Y-67090547D01*
X69233372Y-66911380D01*
X69407044Y-66638801D01*
X70338986Y-65114695D01*
X71269669Y-63543381D01*
X72193220Y-61937152D01*
X73103766Y-60308303D01*
X73948198Y-58756798D01*
X74773020Y-57201816D01*
X75573112Y-55654108D01*
X76343354Y-54124422D01*
X76456219Y-54292555D01*
G37*
G04 #@! TD.AperFunction*
D11*
X66217500Y-129540000D03*
X64642500Y-129540000D03*
D12*
X62230000Y-143510000D03*
D13*
X62230000Y-146050000D03*
D14*
X64770000Y-143510000D03*
X64770000Y-146050000D03*
D13*
X67310000Y-143510000D03*
X67310000Y-146050000D03*
D15*
X68580000Y-123190000D03*
X68580000Y-120650000D03*
X62280000Y-120650000D03*
X62280000Y-123190000D03*
D16*
X62230000Y-123190000D03*
X64640912Y-129536608D03*
X63964953Y-114848520D03*
X77470000Y-129540000D03*
X71797995Y-114892004D03*
X54610000Y-123190000D03*
X67803624Y-114865247D03*
X79258717Y-97254919D03*
X69850000Y-150075760D03*
X59690000Y-150099809D03*
X57150000Y-123190000D03*
X51134533Y-96362088D03*
X68580398Y-120658166D03*
X59677135Y-114855930D03*
X54610000Y-129540000D03*
X77825000Y-123190000D03*
X74930000Y-123190000D03*
X72390000Y-139700000D03*
X57150000Y-139700000D03*
X68580000Y-123190000D03*
X66228971Y-129554515D03*
X72707500Y-105727500D03*
X58278290Y-105303386D03*
X62230000Y-120650000D03*
D17*
X66217500Y-129543044D02*
X66217500Y-129540000D01*
X66228971Y-129554515D02*
X66217500Y-129543044D01*
X64640912Y-129538412D02*
X64642500Y-129540000D01*
X64640912Y-129536608D02*
X64640912Y-129538412D01*
X62280000Y-123190000D02*
X62230000Y-123190000D01*
X62280000Y-120650000D02*
X62230000Y-120650000D01*
G04 #@! TA.AperFunction,Conductor*
G36*
X63756762Y-144433109D02*
G01*
X63788564Y-144457957D01*
X63842954Y-144517040D01*
X64021351Y-144655893D01*
X64049165Y-144670945D01*
X64098755Y-144720165D01*
X64113863Y-144788382D01*
X64089692Y-144853937D01*
X64049165Y-144889055D01*
X64021352Y-144904106D01*
X63842955Y-145042959D01*
X63842950Y-145042963D01*
X63689850Y-145209272D01*
X63689842Y-145209283D01*
X63603509Y-145341425D01*
X63550363Y-145386782D01*
X63481131Y-145396205D01*
X63417796Y-145366702D01*
X63395893Y-145341425D01*
X63354888Y-145278663D01*
X63354887Y-145278663D01*
X62719494Y-145914056D01*
X62703381Y-145853919D01*
X62636502Y-145738080D01*
X62541920Y-145643498D01*
X62426081Y-145576619D01*
X62365940Y-145560504D01*
X63016028Y-144910418D01*
X63077351Y-144876933D01*
X63103708Y-144874099D01*
X63141472Y-144874099D01*
X63201083Y-144867691D01*
X63335931Y-144817396D01*
X63451146Y-144731146D01*
X63537396Y-144615931D01*
X63574280Y-144517040D01*
X63581154Y-144498610D01*
X63623025Y-144442676D01*
X63688489Y-144418258D01*
X63756762Y-144433109D01*
G37*
G04 #@! TD.AperFunction*
G04 #@! TA.AperFunction,Conductor*
G36*
X50868472Y-92606939D02*
G01*
X50924240Y-92649031D01*
X50935760Y-92667838D01*
X51069409Y-92937235D01*
X51213078Y-93226831D01*
X51213904Y-93228528D01*
X51634876Y-94110563D01*
X51635585Y-94112077D01*
X52046858Y-95004544D01*
X52047466Y-95005882D01*
X52449622Y-95906501D01*
X52450166Y-95907738D01*
X52912354Y-96973840D01*
X52912835Y-96974966D01*
X53361773Y-98039196D01*
X53362159Y-98040120D01*
X53799076Y-99099661D01*
X53799370Y-99100382D01*
X54224962Y-100151129D01*
X54225382Y-100152178D01*
X54724777Y-101418159D01*
X54725359Y-101419663D01*
X55174138Y-102602164D01*
X55174678Y-102603615D01*
X55577305Y-103705811D01*
X55577794Y-103707175D01*
X55938679Y-104732113D01*
X55939276Y-104733849D01*
X56553669Y-106564821D01*
X56554178Y-106566370D01*
X56628241Y-106797107D01*
X57054377Y-108124697D01*
X57651188Y-109962880D01*
X57726987Y-110175568D01*
X57919700Y-110716312D01*
X58183584Y-111369192D01*
X58183589Y-111369203D01*
X58454341Y-111929006D01*
X58595879Y-112176321D01*
X58743438Y-112403152D01*
X58743441Y-112403156D01*
X58898455Y-112610427D01*
X58898462Y-112610436D01*
X59019048Y-112749223D01*
X59062362Y-112799075D01*
X59236597Y-112970027D01*
X59422594Y-113124211D01*
X59621787Y-113262558D01*
X59691147Y-113302598D01*
X59835620Y-113385999D01*
X60065518Y-113495460D01*
X60065529Y-113495464D01*
X60065540Y-113495469D01*
X60312908Y-113591867D01*
X60312911Y-113591868D01*
X60312919Y-113591871D01*
X60579259Y-113676163D01*
X60579263Y-113676164D01*
X60579269Y-113676166D01*
X60722616Y-113712713D01*
X60865974Y-113749264D01*
X60865988Y-113749266D01*
X60866001Y-113749270D01*
X61174491Y-113812104D01*
X61227565Y-113820664D01*
X61506268Y-113865615D01*
X62245282Y-113948358D01*
X63094500Y-114004929D01*
X64065404Y-114042765D01*
X65059067Y-114066647D01*
X65169473Y-114069301D01*
X66276994Y-114080030D01*
X66277002Y-114080029D01*
X66277017Y-114080030D01*
X67254580Y-114064125D01*
X67697702Y-114045589D01*
X68112031Y-114019679D01*
X68498798Y-113986157D01*
X68498807Y-113986156D01*
X68859231Y-113944786D01*
X68859233Y-113944785D01*
X68859239Y-113944785D01*
X69194586Y-113895324D01*
X69506073Y-113837536D01*
X69794934Y-113771183D01*
X70062403Y-113696025D01*
X70155022Y-113664492D01*
X70309692Y-113611833D01*
X70309694Y-113611831D01*
X70309712Y-113611826D01*
X70538095Y-113518346D01*
X70748787Y-113415347D01*
X70943020Y-113302590D01*
X71122028Y-113179838D01*
X71287045Y-113046852D01*
X71439304Y-112903394D01*
X71580039Y-112749224D01*
X71710483Y-112584106D01*
X71831871Y-112407800D01*
X71945435Y-112220068D01*
X72052410Y-112020672D01*
X72154028Y-111809373D01*
X72251524Y-111585933D01*
X72439081Y-111101677D01*
X72624951Y-110565997D01*
X72819002Y-109976985D01*
X72823628Y-109962880D01*
X72943590Y-109597092D01*
X72943811Y-109596422D01*
X72976221Y-109499464D01*
X73079831Y-109189499D01*
X73080196Y-109188426D01*
X73241433Y-108721426D01*
X73421143Y-108200921D01*
X73421505Y-108199889D01*
X73766128Y-107235389D01*
X73766653Y-107233950D01*
X74467389Y-105354241D01*
X74467901Y-105352897D01*
X75183482Y-103509486D01*
X75183586Y-103509222D01*
X75913872Y-101665606D01*
X75913873Y-101665606D01*
X75913912Y-101665503D01*
X76409454Y-100421680D01*
X77088264Y-98683880D01*
X77637716Y-97277398D01*
X77637907Y-97276913D01*
X78200825Y-95864965D01*
X78201382Y-95863593D01*
X78784787Y-94457112D01*
X78785437Y-94455575D01*
X79086779Y-93758351D01*
X79087378Y-93756990D01*
X79263131Y-93363643D01*
X79308451Y-93310468D01*
X79375326Y-93290234D01*
X79442525Y-93309368D01*
X79488711Y-93361796D01*
X79494680Y-93377184D01*
X79602026Y-93720081D01*
X79603933Y-93726840D01*
X79926025Y-95005605D01*
X80232717Y-96159180D01*
X80534041Y-97226712D01*
X80840884Y-98250766D01*
X81161155Y-99263293D01*
X81511007Y-100324008D01*
X82341698Y-102756014D01*
X82590338Y-103460792D01*
X82618398Y-103540328D01*
X82792049Y-104011196D01*
X82890362Y-104277779D01*
X83157179Y-104970206D01*
X83418506Y-105619633D01*
X83673943Y-106227939D01*
X83923122Y-106797080D01*
X83923134Y-106797107D01*
X84156018Y-107307844D01*
X84165719Y-107329119D01*
X84401297Y-107825857D01*
X84849999Y-108721426D01*
X85266277Y-109499435D01*
X85525720Y-109959936D01*
X85647205Y-110175568D01*
X85877526Y-110572104D01*
X85894176Y-110639960D01*
X85871496Y-110706046D01*
X85816687Y-110749380D01*
X85747151Y-110756203D01*
X85712857Y-110744274D01*
X84372917Y-110043836D01*
X84372916Y-110043836D01*
X84698498Y-111164700D01*
X84761185Y-111369192D01*
X84771428Y-111402604D01*
X84849939Y-111635338D01*
X84849946Y-111635358D01*
X84849948Y-111635363D01*
X84933366Y-111863958D01*
X84958651Y-111929006D01*
X85021062Y-112089559D01*
X85074350Y-112220082D01*
X85112337Y-112313124D01*
X85206544Y-112535755D01*
X85400980Y-112982127D01*
X85597165Y-113432423D01*
X85597678Y-113433618D01*
X85694803Y-113663085D01*
X85695380Y-113664470D01*
X85700161Y-113676164D01*
X85791026Y-113898415D01*
X85791760Y-113900252D01*
X85885039Y-114139219D01*
X85885890Y-114141464D01*
X85976005Y-114386217D01*
X85976939Y-114388843D01*
X86063200Y-114640428D01*
X86064178Y-114643403D01*
X86145759Y-114902486D01*
X86146747Y-114905782D01*
X86254443Y-115284144D01*
X86255332Y-115287439D01*
X86354963Y-115677979D01*
X86355714Y-115681093D01*
X86447169Y-116082613D01*
X86447806Y-116085574D01*
X86530862Y-116496315D01*
X86531638Y-116500525D01*
X86672879Y-117348753D01*
X86673645Y-117354062D01*
X86780371Y-118226405D01*
X86780888Y-118231503D01*
X86852414Y-119119088D01*
X86852717Y-119124118D01*
X86888257Y-120017347D01*
X86888355Y-120022446D01*
X86887145Y-120911685D01*
X86887024Y-120916990D01*
X86848308Y-121793105D01*
X86848017Y-121797736D01*
X86802132Y-122358921D01*
X86801751Y-122362820D01*
X86739500Y-122910483D01*
X86738951Y-122914675D01*
X86660118Y-123446070D01*
X86659570Y-123449443D01*
X86614059Y-123707092D01*
X86613614Y-123709474D01*
X86563828Y-123962378D01*
X86563309Y-123964876D01*
X86509344Y-124212055D01*
X86508741Y-124214683D01*
X86450543Y-124455952D01*
X86449841Y-124458720D01*
X86387445Y-124693535D01*
X86386629Y-124696461D01*
X86320003Y-124924531D01*
X86319056Y-124927624D01*
X86248184Y-125148635D01*
X86247081Y-125151916D01*
X86171993Y-125365393D01*
X86170710Y-125368873D01*
X86155674Y-125407854D01*
X86113182Y-125463318D01*
X86047449Y-125487004D01*
X85979346Y-125471392D01*
X85930494Y-125421440D01*
X85918892Y-125389935D01*
X85809057Y-124891868D01*
X85709950Y-124434124D01*
X85709810Y-124433465D01*
X85673235Y-124258968D01*
X85637593Y-124088921D01*
X85637310Y-124087525D01*
X85615617Y-123977564D01*
X85615316Y-123976039D01*
X85614786Y-123973168D01*
X85604188Y-123911582D01*
X85603482Y-123906957D01*
X84930714Y-118846343D01*
X84735772Y-121961817D01*
X84611710Y-123944509D01*
X84591525Y-124293541D01*
X84575075Y-124629654D01*
X84551373Y-125265323D01*
X84536523Y-125857023D01*
X84526450Y-126409689D01*
X84526443Y-126410052D01*
X84508666Y-127250225D01*
X84508553Y-127253510D01*
X84471159Y-128037427D01*
X84470853Y-128042039D01*
X84438336Y-128423925D01*
X84437925Y-128427965D01*
X84392591Y-128811369D01*
X84391968Y-128815914D01*
X84331229Y-129205433D01*
X84330380Y-129210251D01*
X84251564Y-129611103D01*
X84250508Y-129615960D01*
X84150901Y-130033406D01*
X84149684Y-130038098D01*
X84026573Y-130477250D01*
X84025259Y-130481625D01*
X83875895Y-130947647D01*
X83874550Y-130951612D01*
X83696202Y-131449555D01*
X83694883Y-131453070D01*
X83484828Y-131987951D01*
X83483578Y-131991012D01*
X83239114Y-132567809D01*
X83237961Y-132570444D01*
X82956399Y-133194111D01*
X82955359Y-133196356D01*
X82785824Y-133552740D01*
X82633533Y-133872874D01*
X82313084Y-134548067D01*
X82041946Y-135119361D01*
X82041906Y-135119444D01*
X80696976Y-137947824D01*
X80696558Y-137948695D01*
X79974374Y-139437417D01*
X79973700Y-139438785D01*
X79425183Y-140534976D01*
X79377580Y-140586120D01*
X79309883Y-140603409D01*
X79243586Y-140581353D01*
X79210058Y-140546654D01*
X78540359Y-139507380D01*
X78540358Y-139507381D01*
X75103707Y-145286520D01*
X75102407Y-145288657D01*
X74708352Y-145921878D01*
X74707501Y-145923226D01*
X74323148Y-146523503D01*
X74322121Y-146525081D01*
X73943030Y-147097805D01*
X73942148Y-147099118D01*
X73753539Y-147376317D01*
X73752900Y-147377248D01*
X73563670Y-147649987D01*
X73563010Y-147650928D01*
X73368995Y-147925100D01*
X73368317Y-147926049D01*
X73171110Y-148199245D01*
X73170418Y-148200195D01*
X72999961Y-148431679D01*
X72944359Y-148473990D01*
X72899981Y-148482153D01*
X70850037Y-148479999D01*
X70850037Y-151042351D01*
X70830352Y-151109390D01*
X70819903Y-151123377D01*
X69887441Y-152203594D01*
X69886451Y-152204726D01*
X68476152Y-153799009D01*
X68475246Y-153800023D01*
X67744779Y-154607758D01*
X67743970Y-154608643D01*
X67026191Y-155387087D01*
X67025456Y-155387878D01*
X66691524Y-155743765D01*
X66690964Y-155744357D01*
X66369363Y-156082618D01*
X66368685Y-156083326D01*
X66061983Y-156400851D01*
X66061141Y-156401715D01*
X65772364Y-156694918D01*
X65771286Y-156695999D01*
X65503056Y-156961717D01*
X65501625Y-156963111D01*
X65257070Y-157197692D01*
X65255079Y-157199561D01*
X65037034Y-157399681D01*
X65034088Y-157402298D01*
X64960575Y-157465558D01*
X64935517Y-157487122D01*
X64871862Y-157515929D01*
X64802738Y-157505748D01*
X64762561Y-157476186D01*
X63983001Y-156611963D01*
X63180109Y-155742421D01*
X62846566Y-155387531D01*
X62425590Y-154939612D01*
X62425447Y-154939461D01*
X61710616Y-154186278D01*
X61710177Y-154185814D01*
X59994979Y-152359838D01*
X59993028Y-152357711D01*
X59169965Y-151439577D01*
X59167831Y-151437134D01*
X58879572Y-151098141D01*
X58851140Y-151034318D01*
X58850037Y-151017814D01*
X58850037Y-148479999D01*
X56867302Y-148479607D01*
X56800267Y-148459909D01*
X56767945Y-148429763D01*
X56629263Y-148243897D01*
X56627002Y-148240765D01*
X55705578Y-146920482D01*
X55703567Y-146917510D01*
X55282441Y-146275202D01*
X55134784Y-146049993D01*
X60861727Y-146049993D01*
X60861727Y-146050006D01*
X60880386Y-146275202D01*
X60880388Y-146275213D01*
X60935863Y-146494278D01*
X61026638Y-146701222D01*
X61105111Y-146821335D01*
X61740504Y-146185941D01*
X61756619Y-146246081D01*
X61823498Y-146361920D01*
X61918080Y-146456502D01*
X62033919Y-146523381D01*
X62094057Y-146539494D01*
X61457139Y-147176412D01*
X61481628Y-147195472D01*
X61680369Y-147303027D01*
X61680375Y-147303029D01*
X61894106Y-147376403D01*
X62117010Y-147413600D01*
X62342990Y-147413600D01*
X62565893Y-147376403D01*
X62779624Y-147303029D01*
X62779639Y-147303022D01*
X62978367Y-147195475D01*
X62978377Y-147195468D01*
X63002859Y-147176413D01*
X63002860Y-147176412D01*
X62365942Y-146539495D01*
X62426081Y-146523381D01*
X62541920Y-146456502D01*
X62636502Y-146361920D01*
X62703381Y-146246081D01*
X62719494Y-146185942D01*
X63354886Y-146821334D01*
X63395891Y-146758573D01*
X63449038Y-146713217D01*
X63518269Y-146703793D01*
X63581605Y-146733295D01*
X63603508Y-146758573D01*
X63689842Y-146890716D01*
X63689850Y-146890727D01*
X63842950Y-147057036D01*
X63842954Y-147057040D01*
X64021351Y-147195893D01*
X64220169Y-147303488D01*
X64220172Y-147303489D01*
X64433982Y-147376890D01*
X64433984Y-147376890D01*
X64433986Y-147376891D01*
X64656967Y-147414100D01*
X64656968Y-147414100D01*
X64883032Y-147414100D01*
X64883033Y-147414100D01*
X65106014Y-147376891D01*
X65319831Y-147303488D01*
X65518649Y-147195893D01*
X65697046Y-147057040D01*
X65850156Y-146890719D01*
X65936193Y-146759028D01*
X65989338Y-146713675D01*
X66058569Y-146704251D01*
X66121905Y-146733753D01*
X66143804Y-146759025D01*
X66229844Y-146890719D01*
X66229849Y-146890724D01*
X66229850Y-146890727D01*
X66382950Y-147057036D01*
X66382954Y-147057040D01*
X66561351Y-147195893D01*
X66760169Y-147303488D01*
X66760172Y-147303489D01*
X66973982Y-147376890D01*
X66973984Y-147376890D01*
X66973986Y-147376891D01*
X67196967Y-147414100D01*
X67196968Y-147414100D01*
X67423032Y-147414100D01*
X67423033Y-147414100D01*
X67646014Y-147376891D01*
X67859831Y-147303488D01*
X68058649Y-147195893D01*
X68237046Y-147057040D01*
X68390156Y-146890719D01*
X68513802Y-146701465D01*
X68604611Y-146494441D01*
X68660107Y-146275293D01*
X68667574Y-146185175D01*
X68678775Y-146050006D01*
X68678775Y-146049993D01*
X68665707Y-145892294D01*
X68660107Y-145824707D01*
X68604611Y-145605559D01*
X68513802Y-145398535D01*
X68506123Y-145386782D01*
X68390157Y-145209283D01*
X68390149Y-145209272D01*
X68237049Y-145042963D01*
X68237048Y-145042962D01*
X68237046Y-145042960D01*
X68058649Y-144904107D01*
X68058647Y-144904106D01*
X68058646Y-144904105D01*
X68058639Y-144904100D01*
X68030836Y-144889055D01*
X67981244Y-144839837D01*
X67966135Y-144771620D01*
X67990306Y-144706064D01*
X68030836Y-144670945D01*
X68058639Y-144655899D01*
X68058642Y-144655896D01*
X68058649Y-144655893D01*
X68237046Y-144517040D01*
X68390156Y-144350719D01*
X68513802Y-144161465D01*
X68604611Y-143954441D01*
X68660107Y-143735293D01*
X68678775Y-143510000D01*
X68678775Y-143509993D01*
X68660107Y-143284710D01*
X68660107Y-143284707D01*
X68604611Y-143065559D01*
X68513802Y-142858535D01*
X68390156Y-142669281D01*
X68390153Y-142669278D01*
X68390149Y-142669272D01*
X68237049Y-142502963D01*
X68237048Y-142502962D01*
X68237046Y-142502960D01*
X68058649Y-142364107D01*
X67919594Y-142288854D01*
X67859832Y-142256512D01*
X67859827Y-142256510D01*
X67646017Y-142183109D01*
X67461434Y-142152308D01*
X67423033Y-142145900D01*
X67196967Y-142145900D01*
X67158566Y-142152308D01*
X66973982Y-142183109D01*
X66760172Y-142256510D01*
X66760167Y-142256512D01*
X66561352Y-142364106D01*
X66382955Y-142502959D01*
X66382950Y-142502963D01*
X66229850Y-142669272D01*
X66229842Y-142669283D01*
X66143808Y-142800968D01*
X66090662Y-142846325D01*
X66021430Y-142855748D01*
X65958095Y-142826246D01*
X65936192Y-142800968D01*
X65850157Y-142669283D01*
X65850149Y-142669272D01*
X65697049Y-142502963D01*
X65697048Y-142502962D01*
X65697046Y-142502960D01*
X65518649Y-142364107D01*
X65379594Y-142288854D01*
X65319832Y-142256512D01*
X65319827Y-142256510D01*
X65106017Y-142183109D01*
X64921434Y-142152308D01*
X64883033Y-142145900D01*
X64656967Y-142145900D01*
X64618566Y-142152308D01*
X64433982Y-142183109D01*
X64220172Y-142256510D01*
X64220167Y-142256512D01*
X64021352Y-142364106D01*
X63842955Y-142502958D01*
X63788565Y-142562041D01*
X63728677Y-142598031D01*
X63658839Y-142595930D01*
X63601223Y-142556405D01*
X63581154Y-142521390D01*
X63537397Y-142404071D01*
X63537393Y-142404064D01*
X63451147Y-142288855D01*
X63451144Y-142288852D01*
X63335935Y-142202606D01*
X63335928Y-142202602D01*
X63201082Y-142152308D01*
X63201083Y-142152308D01*
X63141483Y-142145901D01*
X63141481Y-142145900D01*
X63141473Y-142145900D01*
X63141464Y-142145900D01*
X61318529Y-142145900D01*
X61318523Y-142145901D01*
X61258916Y-142152308D01*
X61124071Y-142202602D01*
X61124064Y-142202606D01*
X61008855Y-142288852D01*
X61008852Y-142288855D01*
X60922606Y-142404064D01*
X60922602Y-142404071D01*
X60872308Y-142538917D01*
X60865901Y-142598516D01*
X60865900Y-142598535D01*
X60865900Y-144421470D01*
X60865901Y-144421476D01*
X60872308Y-144481083D01*
X60922602Y-144615928D01*
X60922606Y-144615935D01*
X61008852Y-144731144D01*
X61008855Y-144731147D01*
X61124064Y-144817393D01*
X61124071Y-144817397D01*
X61169018Y-144834161D01*
X61258917Y-144867691D01*
X61318527Y-144874100D01*
X61356289Y-144874099D01*
X61423326Y-144893782D01*
X61443970Y-144910418D01*
X62094057Y-145560504D01*
X62033919Y-145576619D01*
X61918080Y-145643498D01*
X61823498Y-145738080D01*
X61756619Y-145853919D01*
X61740504Y-145914057D01*
X61105111Y-145278663D01*
X61026639Y-145398774D01*
X60935863Y-145605721D01*
X60880388Y-145824786D01*
X60880386Y-145824797D01*
X60861727Y-146049993D01*
X55134784Y-146049993D01*
X54716548Y-145412093D01*
X54713971Y-145407989D01*
X54706614Y-145395748D01*
X54145615Y-144462286D01*
X54145084Y-144461393D01*
X53846202Y-143954439D01*
X53212209Y-142879078D01*
X52782521Y-142145901D01*
X51951055Y-140727169D01*
X51546734Y-140039676D01*
X51288250Y-140427508D01*
X51234690Y-140472376D01*
X51165375Y-140481164D01*
X51102313Y-140451084D01*
X51081093Y-140426305D01*
X50987756Y-140282664D01*
X50771636Y-139961596D01*
X50537526Y-139620982D01*
X50287559Y-139260715D01*
X49543279Y-138179220D01*
X49542290Y-138177758D01*
X49148520Y-137586453D01*
X49147354Y-137584669D01*
X48747774Y-136961677D01*
X48746326Y-136959364D01*
X48347757Y-136306767D01*
X48346097Y-136303965D01*
X47955252Y-135623691D01*
X47953350Y-135620256D01*
X47576638Y-134913689D01*
X47575110Y-134910727D01*
X47531183Y-134822718D01*
X47394632Y-134549131D01*
X47393604Y-134547020D01*
X47218989Y-134179209D01*
X47217890Y-134176829D01*
X46937736Y-133552740D01*
X46936509Y-133549913D01*
X46689233Y-132960270D01*
X46687910Y-132956985D01*
X46471135Y-132395632D01*
X46469804Y-132392013D01*
X46281192Y-131852888D01*
X46279864Y-131848868D01*
X46117077Y-131325917D01*
X46115809Y-131321565D01*
X46110568Y-131302273D01*
X45976453Y-130808511D01*
X45975351Y-130804136D01*
X45857059Y-130294692D01*
X45856129Y-130290328D01*
X45847392Y-130245387D01*
X45756596Y-129778368D01*
X45755880Y-129774325D01*
X45671308Y-129244865D01*
X45670779Y-129241199D01*
X45670086Y-129235831D01*
X45670084Y-129235818D01*
X63704500Y-129235818D01*
X63704500Y-129844181D01*
X63714563Y-129942683D01*
X63767450Y-130102284D01*
X63767455Y-130102295D01*
X63855716Y-130245387D01*
X63855719Y-130245391D01*
X63974608Y-130364280D01*
X63974612Y-130364283D01*
X64117704Y-130452544D01*
X64117707Y-130452545D01*
X64117713Y-130452549D01*
X64277315Y-130505436D01*
X64375826Y-130515500D01*
X64375831Y-130515500D01*
X64909169Y-130515500D01*
X64909174Y-130515500D01*
X65007685Y-130505436D01*
X65167287Y-130452549D01*
X65310391Y-130364281D01*
X65342319Y-130332353D01*
X65403642Y-130298868D01*
X65473334Y-130303852D01*
X65517681Y-130332353D01*
X65549608Y-130364280D01*
X65549612Y-130364283D01*
X65692704Y-130452544D01*
X65692707Y-130452545D01*
X65692713Y-130452549D01*
X65852315Y-130505436D01*
X65950826Y-130515500D01*
X65950831Y-130515500D01*
X66484169Y-130515500D01*
X66484174Y-130515500D01*
X66582685Y-130505436D01*
X66742287Y-130452549D01*
X66885391Y-130364281D01*
X67004281Y-130245391D01*
X67092549Y-130102287D01*
X67145436Y-129942685D01*
X67155500Y-129844174D01*
X67155500Y-129235826D01*
X67145436Y-129137315D01*
X67092549Y-128977713D01*
X67092545Y-128977707D01*
X67092544Y-128977704D01*
X67004283Y-128834612D01*
X67004280Y-128834608D01*
X66885391Y-128715719D01*
X66885387Y-128715716D01*
X66742295Y-128627455D01*
X66742289Y-128627452D01*
X66742287Y-128627451D01*
X66582685Y-128574564D01*
X66582683Y-128574563D01*
X66484181Y-128564500D01*
X66484174Y-128564500D01*
X65950826Y-128564500D01*
X65950818Y-128564500D01*
X65852316Y-128574563D01*
X65852315Y-128574564D01*
X65773219Y-128600773D01*
X65692715Y-128627450D01*
X65692704Y-128627455D01*
X65549612Y-128715716D01*
X65549608Y-128715719D01*
X65517681Y-128747647D01*
X65456358Y-128781132D01*
X65386666Y-128776148D01*
X65342319Y-128747647D01*
X65310391Y-128715719D01*
X65310387Y-128715716D01*
X65167295Y-128627455D01*
X65167289Y-128627452D01*
X65167287Y-128627451D01*
X65007685Y-128574564D01*
X65007683Y-128574563D01*
X64909181Y-128564500D01*
X64909174Y-128564500D01*
X64375826Y-128564500D01*
X64375818Y-128564500D01*
X64277316Y-128574563D01*
X64277315Y-128574564D01*
X64198219Y-128600773D01*
X64117715Y-128627450D01*
X64117704Y-128627455D01*
X63974612Y-128715716D01*
X63974608Y-128715719D01*
X63855719Y-128834608D01*
X63855716Y-128834612D01*
X63767455Y-128977704D01*
X63767451Y-128977713D01*
X63714564Y-129137315D01*
X63714564Y-129137316D01*
X63714563Y-129137316D01*
X63704500Y-129235818D01*
X45670084Y-129235818D01*
X45600391Y-128695805D01*
X45600026Y-128692653D01*
X45587854Y-128574563D01*
X45541518Y-128125037D01*
X45541293Y-128122613D01*
X45492370Y-127526584D01*
X45492238Y-127524808D01*
X45450605Y-126894240D01*
X45450533Y-126893046D01*
X45413905Y-126222149D01*
X45413849Y-126221012D01*
X45346318Y-124733424D01*
X45346304Y-124733107D01*
X45344672Y-124695004D01*
X45282213Y-123236615D01*
X45282212Y-123236615D01*
X44436226Y-124471621D01*
X44332451Y-124629855D01*
X44234322Y-124793136D01*
X44141634Y-124961306D01*
X44054215Y-125134143D01*
X44046728Y-125150268D01*
X43993307Y-125265323D01*
X43971879Y-125311472D01*
X43894477Y-125493013D01*
X43888355Y-125508650D01*
X43845582Y-125563897D01*
X43779730Y-125587248D01*
X43711707Y-125571291D01*
X43663110Y-125521091D01*
X43652843Y-125494487D01*
X43619907Y-125367149D01*
X43616114Y-125352484D01*
X43615676Y-125350739D01*
X43594906Y-125265323D01*
X43551245Y-125085774D01*
X43550863Y-125084152D01*
X43489239Y-124814469D01*
X43488882Y-124812858D01*
X43430103Y-124538891D01*
X43429800Y-124537435D01*
X43373905Y-124259564D01*
X43373669Y-124258352D01*
X43320803Y-123977501D01*
X43320545Y-123976082D01*
X43270838Y-123693148D01*
X43270506Y-123691158D01*
X43183206Y-123138327D01*
X43182803Y-123135574D01*
X43147188Y-122871473D01*
X43147184Y-122871441D01*
X61029500Y-122871441D01*
X61029500Y-123508558D01*
X61044157Y-123638648D01*
X61044159Y-123638658D01*
X61068939Y-123709474D01*
X61101878Y-123803606D01*
X61194853Y-123951576D01*
X61318424Y-124075147D01*
X61466394Y-124168122D01*
X61631343Y-124225841D01*
X61631349Y-124225841D01*
X61631351Y-124225842D01*
X61672750Y-124230506D01*
X61761442Y-124240499D01*
X61761445Y-124240500D01*
X61761448Y-124240500D01*
X62798555Y-124240500D01*
X62798556Y-124240499D01*
X62928657Y-124225841D01*
X62954697Y-124216729D01*
X67906822Y-124216729D01*
X67931458Y-124225350D01*
X67931462Y-124225351D01*
X68061469Y-124239999D01*
X68061473Y-124240000D01*
X69098527Y-124240000D01*
X69098530Y-124239999D01*
X69228537Y-124225351D01*
X69228541Y-124225350D01*
X69253177Y-124216729D01*
X68580000Y-123543552D01*
X67906822Y-124216729D01*
X62954697Y-124216729D01*
X63093606Y-124168122D01*
X63241576Y-124075147D01*
X63365147Y-123951576D01*
X63458122Y-123803606D01*
X63515841Y-123638657D01*
X63530500Y-123508552D01*
X63530500Y-122871469D01*
X67330000Y-122871469D01*
X67330000Y-123508530D01*
X67344648Y-123638539D01*
X67402330Y-123803387D01*
X67483646Y-123932801D01*
X68226448Y-123190000D01*
X68226446Y-123189998D01*
X68933551Y-123189998D01*
X68933551Y-123189999D01*
X69676352Y-123932800D01*
X69676353Y-123932800D01*
X69757668Y-123803389D01*
X69815351Y-123638539D01*
X69829999Y-123508530D01*
X69830000Y-123508526D01*
X69830000Y-122871473D01*
X69829999Y-122871469D01*
X69815351Y-122741460D01*
X69757668Y-122576610D01*
X69676352Y-122447198D01*
X68933551Y-123189998D01*
X68226446Y-123189998D01*
X67483646Y-122447198D01*
X67483645Y-122447198D01*
X67402331Y-122576610D01*
X67344648Y-122741460D01*
X67330000Y-122871469D01*
X63530500Y-122871469D01*
X63530500Y-122871448D01*
X63515841Y-122741343D01*
X63458122Y-122576394D01*
X63365147Y-122428424D01*
X63241576Y-122304853D01*
X63093606Y-122211878D01*
X63093605Y-122211877D01*
X63093604Y-122211877D01*
X62954692Y-122163269D01*
X67906820Y-122163269D01*
X68579998Y-122836447D01*
X69253177Y-122163269D01*
X69228541Y-122154648D01*
X69098528Y-122140000D01*
X68061471Y-122140000D01*
X67931459Y-122154648D01*
X67906820Y-122163269D01*
X62954692Y-122163269D01*
X62928658Y-122154159D01*
X62928648Y-122154157D01*
X62798558Y-122139500D01*
X62798552Y-122139500D01*
X61761448Y-122139500D01*
X61761441Y-122139500D01*
X61631351Y-122154157D01*
X61631341Y-122154159D01*
X61466395Y-122211877D01*
X61318423Y-122304853D01*
X61194853Y-122428423D01*
X61101877Y-122576395D01*
X61044159Y-122741341D01*
X61044157Y-122741351D01*
X61029500Y-122871441D01*
X43147184Y-122871441D01*
X43108067Y-122581374D01*
X43107734Y-122578677D01*
X43046022Y-122026943D01*
X43045748Y-122024197D01*
X43017003Y-121698995D01*
X48499499Y-121698995D01*
X48526418Y-121834322D01*
X48526421Y-121834332D01*
X48579221Y-121961804D01*
X48579228Y-121961817D01*
X48655885Y-122076541D01*
X48655888Y-122076545D01*
X48753454Y-122174111D01*
X48753458Y-122174114D01*
X48868182Y-122250771D01*
X48868195Y-122250778D01*
X48995667Y-122303578D01*
X48995672Y-122303580D01*
X48995676Y-122303580D01*
X48995677Y-122303581D01*
X49131004Y-122330500D01*
X49131007Y-122330500D01*
X49268995Y-122330500D01*
X49360041Y-122312389D01*
X49404328Y-122303580D01*
X49531811Y-122250775D01*
X49646542Y-122174114D01*
X49744114Y-122076542D01*
X49820775Y-121961811D01*
X49873580Y-121834328D01*
X49882389Y-121790041D01*
X49900500Y-121698995D01*
X49900500Y-121561004D01*
X49873581Y-121425677D01*
X49873580Y-121425676D01*
X49873580Y-121425672D01*
X49867741Y-121411576D01*
X49820778Y-121298195D01*
X49820771Y-121298182D01*
X49744114Y-121183458D01*
X49744111Y-121183454D01*
X49646545Y-121085888D01*
X49646541Y-121085885D01*
X49531817Y-121009228D01*
X49531804Y-121009221D01*
X49404332Y-120956421D01*
X49404322Y-120956418D01*
X49268995Y-120929500D01*
X49268993Y-120929500D01*
X49131007Y-120929500D01*
X49131005Y-120929500D01*
X48995677Y-120956418D01*
X48995667Y-120956421D01*
X48868195Y-121009221D01*
X48868182Y-121009228D01*
X48753458Y-121085885D01*
X48753454Y-121085888D01*
X48655888Y-121183454D01*
X48655885Y-121183458D01*
X48579228Y-121298182D01*
X48579221Y-121298195D01*
X48526421Y-121425667D01*
X48526418Y-121425677D01*
X48499500Y-121561004D01*
X48499500Y-121561007D01*
X48499500Y-121698993D01*
X48499500Y-121698995D01*
X48499499Y-121698995D01*
X43017003Y-121698995D01*
X42997588Y-121479349D01*
X42997367Y-121476449D01*
X42963250Y-120942528D01*
X42963091Y-120939413D01*
X42943523Y-120420812D01*
X42943443Y-120417378D01*
X42942662Y-120331441D01*
X61029500Y-120331441D01*
X61029500Y-120968558D01*
X61044157Y-121098648D01*
X61044159Y-121098658D01*
X61101801Y-121263387D01*
X61101878Y-121263606D01*
X61194853Y-121411576D01*
X61318424Y-121535147D01*
X61466394Y-121628122D01*
X61631343Y-121685841D01*
X61631349Y-121685841D01*
X61631351Y-121685842D01*
X61672750Y-121690506D01*
X61761442Y-121700499D01*
X61761445Y-121700500D01*
X61761448Y-121700500D01*
X62798555Y-121700500D01*
X62798556Y-121700499D01*
X62928657Y-121685841D01*
X62954697Y-121676729D01*
X67906822Y-121676729D01*
X67931458Y-121685350D01*
X67931462Y-121685351D01*
X68061469Y-121699999D01*
X68061473Y-121700000D01*
X69098527Y-121700000D01*
X69098530Y-121699999D01*
X69228537Y-121685351D01*
X69228541Y-121685350D01*
X69253177Y-121676729D01*
X68580000Y-121003552D01*
X67906822Y-121676729D01*
X62954697Y-121676729D01*
X63093606Y-121628122D01*
X63241576Y-121535147D01*
X63365147Y-121411576D01*
X63458122Y-121263606D01*
X63515841Y-121098657D01*
X63530500Y-120968552D01*
X63530500Y-120331469D01*
X67330000Y-120331469D01*
X67330000Y-120968530D01*
X67344648Y-121098539D01*
X67402330Y-121263387D01*
X67483646Y-121392801D01*
X68226448Y-120650000D01*
X68226446Y-120649998D01*
X68933551Y-120649998D01*
X68933551Y-120649999D01*
X69676352Y-121392800D01*
X69676353Y-121392800D01*
X69757668Y-121263389D01*
X69815351Y-121098539D01*
X69829999Y-120968530D01*
X69830000Y-120968526D01*
X69830000Y-120331473D01*
X69829999Y-120331469D01*
X69815351Y-120201460D01*
X69757668Y-120036610D01*
X69676352Y-119907198D01*
X68933551Y-120649998D01*
X68226446Y-120649998D01*
X67483646Y-119907198D01*
X67483645Y-119907198D01*
X67402331Y-120036610D01*
X67344648Y-120201460D01*
X67330000Y-120331469D01*
X63530500Y-120331469D01*
X63530500Y-120331448D01*
X63515841Y-120201343D01*
X63458122Y-120036394D01*
X63365147Y-119888424D01*
X63241576Y-119764853D01*
X63093606Y-119671878D01*
X63093605Y-119671877D01*
X63093604Y-119671877D01*
X62954692Y-119623269D01*
X67906820Y-119623269D01*
X68579998Y-120296447D01*
X69253177Y-119623269D01*
X69228541Y-119614648D01*
X69098528Y-119600000D01*
X68061471Y-119600000D01*
X67931459Y-119614648D01*
X67906820Y-119623269D01*
X62954692Y-119623269D01*
X62928658Y-119614159D01*
X62928648Y-119614157D01*
X62798558Y-119599500D01*
X62798552Y-119599500D01*
X61761448Y-119599500D01*
X61761441Y-119599500D01*
X61631351Y-119614157D01*
X61631341Y-119614159D01*
X61466395Y-119671877D01*
X61318423Y-119764853D01*
X61194853Y-119888423D01*
X61101877Y-120036395D01*
X61044159Y-120201341D01*
X61044157Y-120201351D01*
X61029500Y-120331441D01*
X42942662Y-120331441D01*
X42938910Y-119918392D01*
X42938938Y-119914410D01*
X42942391Y-119764853D01*
X42949917Y-119438881D01*
X42950054Y-119435258D01*
X42956985Y-119303578D01*
X42970068Y-119055006D01*
X42970246Y-119052245D01*
X42997112Y-118698995D01*
X48499499Y-118698995D01*
X48526418Y-118834322D01*
X48526421Y-118834332D01*
X48579221Y-118961804D01*
X48579228Y-118961817D01*
X48655885Y-119076541D01*
X48655888Y-119076545D01*
X48753454Y-119174111D01*
X48753458Y-119174114D01*
X48868182Y-119250771D01*
X48868195Y-119250778D01*
X48995667Y-119303578D01*
X48995672Y-119303580D01*
X48995676Y-119303580D01*
X48995677Y-119303581D01*
X49131004Y-119330500D01*
X49131007Y-119330500D01*
X49268995Y-119330500D01*
X49360041Y-119312389D01*
X49404328Y-119303580D01*
X49531811Y-119250775D01*
X49646542Y-119174114D01*
X49744114Y-119076542D01*
X49820775Y-118961811D01*
X49873580Y-118834328D01*
X49900500Y-118698993D01*
X49900500Y-118561007D01*
X49900500Y-118561004D01*
X49873581Y-118425677D01*
X49873580Y-118425676D01*
X49873580Y-118425672D01*
X49873578Y-118425667D01*
X49820778Y-118298195D01*
X49820771Y-118298182D01*
X49744114Y-118183458D01*
X49744111Y-118183454D01*
X49646545Y-118085888D01*
X49646541Y-118085885D01*
X49531817Y-118009228D01*
X49531804Y-118009221D01*
X49404332Y-117956421D01*
X49404322Y-117956418D01*
X49268995Y-117929500D01*
X49268993Y-117929500D01*
X49131007Y-117929500D01*
X49131005Y-117929500D01*
X48995677Y-117956418D01*
X48995667Y-117956421D01*
X48868195Y-118009221D01*
X48868182Y-118009228D01*
X48753458Y-118085885D01*
X48753454Y-118085888D01*
X48655888Y-118183454D01*
X48655885Y-118183458D01*
X48579228Y-118298182D01*
X48579221Y-118298195D01*
X48526421Y-118425667D01*
X48526418Y-118425677D01*
X48499500Y-118561004D01*
X48499500Y-118561007D01*
X48499500Y-118698993D01*
X48499500Y-118698995D01*
X48499499Y-118698995D01*
X42997112Y-118698995D01*
X42998346Y-118682776D01*
X42998593Y-118679961D01*
X43034240Y-118320794D01*
X43034532Y-118318151D01*
X43077214Y-117968406D01*
X43077554Y-117965852D01*
X43126742Y-117624805D01*
X43127123Y-117622341D01*
X43182227Y-117289615D01*
X43182848Y-117286180D01*
X43309281Y-116639292D01*
X43310133Y-116635290D01*
X43454316Y-116010309D01*
X43455068Y-116007237D01*
X43612958Y-115397272D01*
X43613660Y-115394683D01*
X43954663Y-114191650D01*
X44120195Y-113618446D01*
X44283349Y-113036464D01*
X44440761Y-112440244D01*
X44516263Y-112135088D01*
X44589069Y-111824325D01*
X44589069Y-111824319D01*
X44590133Y-111819779D01*
X44590375Y-111818426D01*
X44729058Y-111208650D01*
X44096848Y-111216762D01*
X44096822Y-111216762D01*
X44096789Y-111216763D01*
X44004757Y-111218810D01*
X43915119Y-111222520D01*
X43827979Y-111227802D01*
X43743336Y-111234565D01*
X43661155Y-111242719D01*
X43642388Y-111244945D01*
X43573497Y-111233293D01*
X43521841Y-111186245D01*
X43503822Y-111118739D01*
X43513425Y-111073870D01*
X43646589Y-110756203D01*
X43942221Y-110050965D01*
X43943304Y-110048461D01*
X44296781Y-109256738D01*
X44297572Y-109255006D01*
X44722075Y-108342916D01*
X44722858Y-108341265D01*
X45222753Y-107309445D01*
X45223490Y-107307952D01*
X45803086Y-106157133D01*
X45803844Y-106155656D01*
X46467453Y-104886558D01*
X46468248Y-104885066D01*
X47220691Y-103497457D01*
X47571527Y-102831743D01*
X47608026Y-102756014D01*
X47682175Y-102602164D01*
X47899171Y-102151930D01*
X48204487Y-101462173D01*
X48488339Y-100766628D01*
X48751593Y-100069453D01*
X48995112Y-99374801D01*
X49219761Y-98686831D01*
X49426404Y-98009696D01*
X49789132Y-96704561D01*
X50090210Y-95492645D01*
X50197882Y-95005882D01*
X50535058Y-93481568D01*
X50535067Y-93481525D01*
X50535082Y-93481458D01*
X50678995Y-92807205D01*
X50679098Y-92806731D01*
X50703619Y-92696112D01*
X50737345Y-92634922D01*
X50798800Y-92601680D01*
X50868472Y-92606939D01*
G37*
G04 #@! TD.AperFunction*
M02*
