<?xml version="1.0" encoding="UTF-8"?>
<!DOCTYPE svg PUBLIC "-//W3C//DTD SVG 1.1//EN" "http://www.w3.org/Graphics/SVG/1.1/DTD/svg11.dtd">
<!-- Creator: CorelDRAW -->
<svg xmlns="http://www.w3.org/2000/svg" xml:space="preserve" width="8.0548mm" height="9.9962mm" version="1.1" style="shape-rendering:geometricPrecision; text-rendering:geometricPrecision; image-rendering:optimizeQuality; fill-rule:evenodd; clip-rule:evenodd"
viewBox="0 0 606.18 752.29"
 xmlns:xlink="http://www.w3.org/1999/xlink"
 xmlns:xodm="http://www.corel.com/coreldraw/odm/2003">
 <defs>
  <style type="text/css">
   <![CDATA[
    .fil0 {fill:#A88D70;fill-rule:nonzero}
   ]]>
  </style>
 </defs>
 <g id="Layer_x0020_1">
  <metadata id="CorelCorpID_0Corel-Layer"/>
  <path class="fil0" d="M228.04 48.99c-37.45,28.39 -80.01,69.55 -117.92,112.46 -38.61,43.7 -71.92,88.66 -89.38,123.01 -20.32,40.13 -25.93,79.92 -15.83,123.5 10.93,47.14 39.86,99.9 87.85,162.75l0.14 0.14c31.18,41.39 82.57,89.1 130.85,125.89 43.38,33.05 79.43,56.87 86.87,55.49 13.52,-4.4 49.89,-31.89 90.19,-66.3 43.44,-37.1 88.86,-80.98 114.92,-113.35 52.52,-66.11 81.74,-119.14 88.79,-168.25 6.74,-46.97 -7.03,-93.36 -40.18,-147.89 -31.16,-51.36 -88.68,-117.2 -144.33,-170.48 -51.2,-49.02 -96.69,-85.96 -110.5,-85.96 -1.04,0 -9.55,4.29 -22.34,11.15 -16.74,8.98 -36.7,21.54 -55.71,35.36l-3.42 2.48z"/>
 </g>
</svg>
