<?xml version="1.0" encoding="UTF-8"?>
<!DOCTYPE svg PUBLIC "-//W3C//DTD SVG 1.1//EN" "http://www.w3.org/Graphics/SVG/1.1/DTD/svg11.dtd">
<!-- Creator: CorelDRAW -->
<svg xmlns="http://www.w3.org/2000/svg" xml:space="preserve" width="35.3364mm" height="58.737mm" version="1.1" style="shape-rendering:geometricPrecision; text-rendering:geometricPrecision; image-rendering:optimizeQuality; fill-rule:evenodd; clip-rule:evenodd"
viewBox="0 0 7032.73 11689.97"
 xmlns:xlink="http://www.w3.org/1999/xlink"
 xmlns:xodm="http://www.corel.com/coreldraw/odm/2003">
 <defs>
  <style type="text/css">
   <![CDATA[
    .fil0 {fill:#CC1F25}
   ]]>
  </style>
 </defs>
 <g id="Layer_x0020_1">
  <metadata id="CorelCorpID_0Corel-Layer"/>
  <path class="fil0" d="M102.54 4669.98c-18.17,-18.21 -32.86,-33.52 -46.25,-47.49 -15.3,-15.96 -28.78,-29.97 -42.37,-42.87 -46.09,619.02 28.9,826.56 130.76,1108.47 38.35,106.14 80.37,222.39 122.56,375.83l74.77 271.98 -320.43 -231.8c96.17,248.8 303.49,556.94 482.55,823.06 113,167.93 215.32,320.01 275.57,435.64 138.18,265.24 269.2,544.64 394.14,828.61 123.14,279.77 241.59,567.29 355.67,851.02 280.5,697.67 445.49,1216.4 567.73,1600.78 309.12,971.91 325.3,1022.76 1430.07,1044.75 1100.93,21.93 1151.4,-132.39 1329.61,-677.65 16.5,-50.45 33.99,-103.99 52.7,-159.18 178.98,-528.13 369.64,-1007.77 567.91,-1506.64 12.5,-31.47 -30.67,77.22 97.88,-247.56 64.58,-163.26 99.53,-252.96 135.1,-344.31 283.71,-728.74 581.07,-1492.49 1006.83,-2126.29l57.08 -84.37c121.9,-178.82 204.42,-299.89 258.31,-526.41l-0.66 0.62c-58.97,56.98 -112.29,120.73 -155.89,175.72l-244.88 308.76 69.18 -387.66c8.7,-48.76 37.16,-128.29 74.65,-233.06 116.75,-326.2 328.73,-918.43 221.65,-1321.45l-372.03 426.74 77.18 -371.14c24.56,-118.14 59.25,-225.27 95.23,-336.43 78.85,-243.52 164.45,-507.94 149.19,-947.94 -14.51,-417.25 -107.93,-839.32 -242.47,-1246.75 -135.85,-411.34 -312.58,-805.36 -492.5,-1164.06 -23.94,-47.73 -52.92,-111.91 -87.95,-189.53 -101.08,-223.98 -253.28,-561.1 -371.04,-729.38 -199.98,402.58 -418.52,820.43 -644.75,1230.73 -239.38,434.15 -488.78,862.82 -735.73,1259.91 -89.78,144.39 -197.85,292.7 -344.59,403.62 -151.91,114.84 -341.26,187.46 -586.96,172.19 -627.1,-38.99 -1044.69,-798.1 -1330.96,-1318.52l-65.42 -118.7 -901.79 -1601.07c-163.36,289.5 -456.7,973.58 -699.09,1674.61 -208.58,603.26 -376.75,1213.9 -386.94,1586.76l0 0.38c-3.2,118.34 -0.7,231.56 7.12,343.91 7.78,112.03 20.74,221.13 38.41,331.95 20.22,127.14 56.58,234.33 90.65,334.72 31.92,94.14 62.02,182.8 78.47,283.57l49.76 304.48 -218.07 -218.57zm3547.85 -1316.73c89.32,0 261.08,121.74 429.83,283.29 157.15,150.48 321.6,339.71 413.57,491.29 112.47,185.01 158.36,348.15 133.44,521.7 -24.12,167.92 -114.78,337.66 -276.04,540.52l-0.38 0.4c-76.52,95.23 -206.74,221.43 -329.92,326.62 -128.81,109.98 -256.36,200.46 -319.41,217.25l-2.73 0.78c-78.85,18.41 -237.47,-61.92 -395.64,-182.42 -140.29,-106.87 -290.89,-247.23 -384.13,-371.02 -143.99,-188.73 -232.06,-352.61 -267.68,-506.21 -37.83,-163.18 -17.16,-311.47 58.19,-460.3 53.68,-105.64 152.33,-239.62 265.14,-367.3 112.19,-127.02 239.8,-249.49 351.93,-332.73l26.69 -19.82 0.9 0c48.82,-33.95 99.13,-64.88 143.1,-88.47 61.48,-32.98 117.44,-53.58 153.15,-53.58zm-2419.27 496.62c334.89,-365.4 418.46,-1429.4 310.55,-2004.45 -32.76,-174.68 -91.61,-534.87 -205.51,-671.9 26.29,490.39 93.32,876.69 64.58,1388.56 -25.83,460.18 -146.28,875.4 -169.63,1287.79zm4376.22 57.04c67.15,-88.11 73.5,23.86 21.39,-342.64 -180,-1265.78 -66.37,-1646.25 -18.31,-2816.94 -171.42,375.85 -242.19,1098.05 -259.41,1571.6 -27.66,760.48 48.32,979.29 256.32,1587.98zm-3215.24 1895.07c321.46,0 612.57,130.34 823.26,341.02 210.68,210.68 341.02,501.79 341.02,823.26 0,321.48 -130.34,612.57 -341.02,823.26 -210.68,210.67 -501.77,341.02 -823.26,341 -321.48,0.02 -612.57,-130.34 -823.26,-341 -210.68,-210.68 -341.02,-501.79 -341.02,-823.26 0,-321.46 130.34,-612.57 341.02,-823.26 210.68,-210.7 501.79,-341.02 823.26,-341.02zm2396.23 0c321.46,0 612.57,130.34 823.26,341.02 210.68,210.68 341,501.79 341.02,823.26 0,321.48 -130.34,612.57 -341.02,823.26 -210.68,210.67 -501.77,341.02 -823.26,341 -321.48,0.02 -612.57,-130.34 -823.26,-341 -210.67,-210.68 -341.02,-501.77 -341.02,-823.26 0,-321.48 130.36,-612.57 341.02,-823.26 210.68,-210.68 501.77,-341.02 823.26,-341.02z"/>
 </g>
</svg>
