<?xml version="1.0" encoding="UTF-8"?>
<!DOCTYPE svg PUBLIC "-//W3C//DTD SVG 1.1//EN" "http://www.w3.org/Graphics/SVG/1.1/DTD/svg11.dtd">
<!-- Creator: CorelDRAW -->
<svg xmlns="http://www.w3.org/2000/svg" xml:space="preserve" width="43.954mm" height="65.2087mm" version="1.1" style="shape-rendering:geometricPrecision; text-rendering:geometricPrecision; image-rendering:optimizeQuality; fill-rule:evenodd; clip-rule:evenodd"
viewBox="0 0 7206.2 10690.88"
 xmlns:xlink="http://www.w3.org/1999/xlink"
 xmlns:xodm="http://www.corel.com/coreldraw/odm/2003">
 <defs>
  <style type="text/css">
   <![CDATA[
    .fil0 {fill:#636E7C}
   ]]>
  </style>
 </defs>
 <g id="Layer_x0020_1">
  <metadata id="CorelCorpID_0Corel-Layer"/>
  <path class="fil0" d="M270.6 3191.57c-31.18,137.19 -67.81,263.38 -104.01,388.12 -76.3,262.97 -150.78,519.59 -164.72,859.98 -8.33,203.85 11.57,455.84 52.58,697.62 21.17,124.88 47.91,246.51 79.19,356.74 28.81,-83.65 65.28,-160.92 111.9,-228.95l138.7 -202.48 10.51 245.4c14.94,349.03 26.48,596.13 67.2,826.78 40.07,227.09 109.24,439.35 239.73,721.65 150.7,326.06 349.88,612.68 503.18,833.3 56.22,80.91 106.44,153.18 146.93,217l59.51 -89.29 66.28 112.7c1.13,1.93 399.2,682.99 453.19,767.77 449.3,705.21 754.82,1026.53 1146.85,1438.81 152.72,160.64 318.57,335.05 513.7,554.16 77.25,-63.58 209.26,-198 357.75,-357.18 308.19,-330.37 677.31,-759.64 796.22,-905.29 102.06,-125.01 191.08,-242.56 275.61,-363.2 83.15,-118.65 164.65,-244.55 252.43,-387.38l563.54 -947.66 129.11 200.36c126.88,-247.01 323.27,-662.32 444.97,-919.77 47.27,-99.98 84.06,-177.77 96.99,-204.36 299.98,-616.46 303.76,-837.86 310.34,-1223.52 1.98,-117.09 4.26,-248.64 13.98,-404.23l52.3 -835.83 110.35 830.06c2.25,17 26.69,130.4 52.33,245.79l13.53 60.53c76.42,-172.39 121.52,-403.08 138.16,-652.88 25.38,-380.92 -16.54,-801.73 -115.08,-1129.82 -34.97,-116.49 -79.45,-217.77 -122.19,-315.11 -43.1,-98.22 -84.61,-192.69 -115.17,-297.96l-53.38 -183.77 282.11 147.47 -17.03 -29.18c-140.95,-241.25 -354.16,-606.18 -598.1,-1313.13 -102.62,-297.44 -178.52,-519.57 -246.05,-738.61 -68.48,-222.23 -129.77,-444.81 -202.94,-742.26l-33.82 -108.03c-137.24,301.67 -259.35,615.28 -378.48,921.29 -45.2,116.08 -90.4,232.12 -111.29,284.91 -51.58,130.34 -17.35,43.12 -81.25,203.94 -161.21,405.63 -316.21,795.59 -464.61,1233.45 -15.69,46.28 -29.64,88.94 -42.79,129.19 -176.13,538.9 -226,691.4 -1254.13,670.93 -1026.96,-20.43 -1042.07,-67.89 -1330.46,-974.61 -99.43,-312.63 -233.61,-734.52 -463.84,-1307.16 -91.98,-228.76 -188.39,-462.63 -291.06,-695.9 -87.04,-197.79 -177.97,-393.35 -273.5,-581.99 -8.82,35.15 -22.58,100.04 -40.43,184.31 -77.35,364.97 -226.23,1067.39 -543.39,1642.11 -349.11,632.63 -535.9,1060.39 -621.6,1275.06 32.2,-5.39 68.63,-8.97 109.45,-9.49l103.65 -1.33 -22.95 100.91z"/>
 </g>
</svg>
