<?xml version="1.0" encoding="UTF-8"?>
<!DOCTYPE svg PUBLIC "-//W3C//DTD SVG 1.1//EN" "http://www.w3.org/Graphics/SVG/1.1/DTD/svg11.dtd">
<!-- Creator: CorelDRAW -->
<svg xmlns="http://www.w3.org/2000/svg" xml:space="preserve" width="46.6622mm" height="106.159mm" version="1.1" style="shape-rendering:geometricPrecision; text-rendering:geometricPrecision; image-rendering:optimizeQuality; fill-rule:evenodd; clip-rule:evenodd"
viewBox="0 0 7368.2 16762.96"
 xmlns:xlink="http://www.w3.org/1999/xlink"
 xmlns:xodm="http://www.corel.com/coreldraw/odm/2003">
 <defs>
  <style type="text/css">
   <![CDATA[
    .fil0 {fill:#7F161A}
   ]]>
  </style>
 </defs>
 <g id="Layer_x0020_1">
  <metadata id="CorelCorpID_0Corel-Layer"/>
  <path class="fil0" d="M2743.09 1573.44c210.12,382 516.65,939.19 927.08,964.7 152.08,9.44 268.53,-34.93 361.44,-105.16 97,-73.32 171.6,-176.43 234.55,-277.69 194.52,-312.76 390.93,-650.36 579.4,-992.2 200.14,-362.98 390.28,-728.32 559.05,-1072.16l40.16 -81.81 74.89 51.29c131.08,89.78 306.38,478.14 413.73,715.99 29.29,64.9 53.51,118.57 66.68,144.81 146.63,292.33 290.34,612.48 400.01,944.54 110.69,335.2 187.64,684.6 199.77,1033.61 11.24,324.19 -40.8,534.75 -98,718.28l20.89 -23.97 54.34 98.72c177.07,321.86 42.19,812.14 -70.38,1142.36 26.37,-18.24 53.78,-34.41 82.11,-47.56l128.88 -59.86 -17.54 140.96c-43.61,350.39 -124.54,469.09 -263.84,673.43l-44.66 65.67c-123.02,183.14 -232.61,381.56 -333.24,588.09 26.23,43.52 43.8,73.28 47.96,81.43l2.78 5.5 47.73 152.41 1.23 4.63c70.25,285.76 128.71,498.3 193.8,709.48 66.29,215.02 138.21,425.57 235.12,706.45 228.84,663.15 430.43,1008.21 563.71,1236.33 61.17,104.69 108.5,185.7 139.75,264.79l77.72 196.73 -337.98 -176.7c11.53,27.11 23.48,54.34 35.58,81.89 43.36,98.77 88.51,201.53 124.48,321.37 100,332.99 142.62,758.95 116.99,1143.69 -23.89,358.33 -107.91,684.68 -260.97,875.28l-94.87 118.11 -16.63 -57.51c-13.74,282.33 -63.83,527.06 -308.47,1029.81 -21.41,43.99 -52.55,109.89 -92.78,194.97 -140.24,296.64 -383.12,810.32 -495.77,1012.44l-63.94 114.7 -130.27 -202.17 -413.73 696.05c-82.9,134.9 -162.82,258 -248.68,380.52 -84.51,120.61 -172.46,236.86 -272.24,359.06 -116.15,142.29 -475.39,560.18 -773.66,879.91 -192.28,206.11 -363.02,374.41 -437.76,411.55l-53.81 26.73 -39.93 -45.24c-202.77,-229.7 -377.44,-413.4 -537.26,-581.5 -383,-402.77 -681.45,-716.68 -1123.08,-1409.84 -43.6,-68.44 -263.26,-443.02 -374.61,-633.31l-64.01 99.81 -61.08 -127.38c-33.95,-70.82 -107.06,-176.02 -196.39,-304.58 -150.78,-217.02 -346.71,-498.96 -498.17,-826.65 -132.04,-285.67 -202.24,-501.6 -243.24,-733.93 -24.87,-140.91 -38.75,-287.53 -49.19,-459.77 -7.61,33.32 -14.32,67.55 -20.28,102.48l-43.44 254.72 -106.14 -235.59c-73.66,-163.53 -133.64,-388.95 -173.43,-623.77 -41.09,-242.23 -60.95,-496.42 -52.47,-703.96 14.2,-346.96 88.58,-603.28 164.81,-865.92 24.49,-84.42 49.2,-169.53 72.02,-258.52 -62.31,12.68 -85.93,32.7 -86.03,32.78l-211.75 179.19 85.92 -263.7c0.46,-1.42 158.3,-485.86 668.51,-1410.44 294.27,-533.25 434.48,-1194.73 507.32,-1538.41 28.09,-132.53 46.9,-221.18 67.03,-254.1l13.86 -22.64 24.7 -9.73 10.23 -3.95c-45.84,-77.91 -108.91,-171.63 -177.06,-272.91 -203.4,-302.28 -450.12,-668.95 -452.32,-925.26l-1.34 -155.77 173.19 125.28 -22 -61.25c-94.6,-261.79 -162.12,-448.72 -101.14,-1078.18l10.78 -111.24 100.85 47.4 15.84 7.63c-25.71,-76.5 -51.6,-159.22 -67.82,-261.1 -14.97,-94.05 -25.88,-185.36 -32.29,-277.55 -6.41,-91.9 -8.42,-186.52 -5.65,-287.67 8.67,-313.82 145.76,-814.77 315.62,-1306.11 236.67,-684.47 541.25,-1358.33 650.47,-1480.31l73.39 -81.97c92.23,163.78 832.33,1474.66 832.33,1478.42 26.39,47.26 39.26,70.65 52.66,95.03z"/>
 </g>
</svg>
